<svg width="100" height="100" viewBox="0 0 100 100" fill="none" xmlns="http://www.w3.org/2000/svg">
<g filter="url(#filter0_d)">
<circle cx="50" cy="40" r="20" fill="url(#paint0_linear)"/>
</g>
<path d="M50.6855 37.363C50.5657 36.8553 50.3782 36.3565 50.1196 35.8806C48.6222 33.126 45.3058 32.1822 42.7122 33.7726C40.1187 35.3629 39.23 38.8852 40.7273 41.6398C40.986 42.1157 41.2991 42.5377 41.6532 42.9018C43.5792 45.0676 47.2601 47.591 48.9793 48.7168C49.5501 49.0906 50.2652 49.0918 50.846 48.7357C51.4268 48.3795 51.7833 47.7211 51.764 47.0092C51.7056 44.865 51.4885 40.2175 50.6855 37.363Z" fill="url(#paint1_linear)"/>
<path d="M49.3136 37.363C49.4334 36.8553 49.6209 36.3565 49.8795 35.8806C51.3769 33.126 54.6933 32.1822 57.2869 33.7726C59.8804 35.3629 60.7691 38.8852 59.2718 41.6398C59.0131 42.1157 58.7 42.5377 58.3459 42.9018C56.4198 45.0676 52.7389 47.591 51.0198 48.7168C50.449 49.0906 49.7339 49.0918 49.1531 48.7357C48.5723 48.3795 48.2157 47.7211 48.2351 47.0092C48.2935 44.865 48.5106 40.2175 49.3136 37.363Z" fill="url(#paint2_linear)"/>
<defs>
<filter id="filter0_d" x="0" y="0" width="100" height="100" filterUnits="userSpaceOnUse" color-interpolation-filters="sRGB">
<feFlood flood-opacity="0" result="BackgroundImageFix"/>
<feColorMatrix in="SourceAlpha" type="matrix" values="0 0 0 0 0 0 0 0 0 0 0 0 0 0 0 0 0 0 127 0"/>
<feOffset dy="10"/>
<feGaussianBlur stdDeviation="15"/>
<feColorMatrix type="matrix" values="0 0 0 0 0 0 0 0 0 0 0 0 0 0 0 0 0 0 0.08 0"/>
<feBlend mode="normal" in2="BackgroundImageFix" result="effect1_dropShadow"/>
<feBlend mode="normal" in="SourceGraphic" in2="effect1_dropShadow" result="shape"/>
</filter>
<linearGradient id="paint0_linear" x1="50" y1="20" x2="50" y2="60" gradientUnits="userSpaceOnUse">
<stop stop-color="#0027DA"/>
<stop offset="1" stop-color="#13B8C2"/>
</linearGradient>
<linearGradient id="paint1_linear" x1="41.4716" y1="34.4568" x2="51.4497" y2="43.8515" gradientUnits="userSpaceOnUse">
<stop stop-color="white"/>
<stop offset="1" stop-color="white" stop-opacity="0"/>
</linearGradient>
<linearGradient id="paint2_linear" x1="56.3491" y1="33.7966" x2="49.0494" y2="47.2199" gradientUnits="userSpaceOnUse">
<stop stop-color="white"/>
<stop offset="1" stop-color="white" stop-opacity="0.35"/>
</linearGradient>
</defs>
</svg>
