<svg width="44" height="20" viewBox="0 0 44 20" fill="none" xmlns="http://www.w3.org/2000/svg">
<mask id="mask0" style="mask-type:alpha" maskUnits="userSpaceOnUse" x="0" y="3" width="14" height="14">
<path d="M7 3C10.866 3 14 6.13401 14 10C14 13.866 10.866 17 7 17C3.13401 17 0 13.866 0 10C0 6.13401 3.13401 3 7 3ZM7 6.5C5.067 6.5 3.5 8.067 3.5 10C3.5 11.933 5.067 13.5 7 13.5C8.933 13.5 10.5 11.933 10.5 10C10.5 8.067 8.933 6.5 7 6.5Z" fill="white"/>
</mask>
<g mask="url(#mask0)">
<path d="M7 3C10.866 3 14 6.13401 14 10C14 13.866 10.866 17 7 17C3.13401 17 0 13.866 0 10C0 6.13401 3.13401 3 7 3ZM7 6.5C5.067 6.5 3.5 8.067 3.5 10C3.5 11.933 5.067 13.5 7 13.5C8.933 13.5 10.5 11.933 10.5 10C10.5 8.067 8.933 6.5 7 6.5Z" fill="url(#paint0_linear)"/>
<g filter="url(#filter0_f)">
<path d="M7.00065 17.7002C9.57798 17.7002 11.6673 16.9167 11.6673 15.9502C11.6673 14.9837 9.57798 14.2002 7.00065 14.2002C4.42332 14.2002 2.33398 14.9837 2.33398 15.9502C2.33398 16.9167 4.42332 17.7002 7.00065 17.7002Z" fill="#89FFEA"/>
</g>
</g>
<path d="M20.0043 15H21.8487V11.5597H23.7976C26.1491 11.5597 27.4119 10.1477 27.4119 8.18892C27.4119 6.24503 26.1641 4.81818 23.8224 4.81818H20.0043V15ZM21.8487 10.0433V6.35938H23.5391C24.9212 6.35938 25.5327 7.10511 25.5327 8.18892C25.5327 9.27273 24.9212 10.0433 23.549 10.0433H21.8487ZM30.9952 15.1541C32.1934 15.1541 32.9093 14.5923 33.2374 13.951H33.2971V15H35.0272V9.8892C35.0272 7.87074 33.3816 7.2642 31.9249 7.2642C30.3191 7.2642 29.0861 7.98011 28.6884 9.37216L30.3688 9.6108C30.5478 9.08878 31.0549 8.64134 31.9348 8.64134C32.7701 8.64134 33.2275 9.06889 33.2275 9.8196V9.84943C33.2275 10.3665 32.6855 10.3913 31.3382 10.5355C29.8567 10.6946 28.4398 11.1371 28.4398 12.8572C28.4398 14.3587 29.5385 15.1541 30.9952 15.1541ZM31.4625 13.8317C30.7118 13.8317 30.1749 13.4886 30.1749 12.8274C30.1749 12.1364 30.7765 11.848 31.5819 11.7337C32.0542 11.669 32.9988 11.5497 33.2324 11.3608V12.2607C33.2324 13.1108 32.5463 13.8317 31.4625 13.8317ZM37.682 17.8636C39.084 17.8636 39.8944 17.1428 40.3269 15.9247L43.3944 7.37358L41.4703 7.36364L39.7054 13.1307H39.6259L37.8659 7.36364H35.9569L38.726 15.1591L38.5719 15.5717C38.2388 16.4418 37.7118 16.5014 36.9263 16.2727L36.5087 17.6747C36.7523 17.7741 37.1898 17.8636 37.682 17.8636Z" fill="#0D2065"/>
<defs>
<filter id="filter0_f" x="-35.166" y="-23.2998" width="84.3333" height="78.5" filterUnits="userSpaceOnUse" color-interpolation-filters="sRGB">
<feFlood flood-opacity="0" result="BackgroundImageFix"/>
<feBlend mode="normal" in="SourceGraphic" in2="BackgroundImageFix" result="shape"/>
<feGaussianBlur stdDeviation="18.75" result="effect1_foregroundBlur"/>
</filter>
<linearGradient id="paint0_linear" x1="7.5" y1="3" x2="7.5" y2="17.5" gradientUnits="userSpaceOnUse">
<stop stop-color="#4BF4C1"/>
<stop offset="1" stop-color="#25BAE5"/>
</linearGradient>
</defs>
</svg>
