<svg xmlns="http://www.w3.org/2000/svg" width="35" height="40" viewBox="0 0 35 40">
    <g fill="none" fill-rule="evenodd">
        <path fill="#009DE2" d="M15.05 9.414h11.284c6.057 0 8.338 3.066 7.986 7.579-.581 7.438-5.078 11.552-11.044 11.552h-3.012c-.817 0-1.367.54-1.59 2.009l-1.292 8.527c-.084.554-.375.88-.813.919H9.494c-.665 0-.902-.51-.728-1.612l4.32-27.356c.173-1.096.773-1.618 1.965-1.618z"/>
        <path fill="#113984" d="M7.997 0H19.29c3.181 0 6.954.103 9.478 2.33 1.686 1.486 2.57 3.855 2.366 6.398-.692 8.625-5.851 13.455-12.769 13.455h-5.57c-.948 0-1.577.628-1.844 2.33L9.398 34.4c-.101.641-.38 1.02-.887 1.065H1.554c-.772 0-1.047-.59-.845-1.87l5.01-31.72C5.92.606 6.615 0 7.997 0z"/>
        <path fill="#172C70" d="M11.114 23.516l1.972-12.484c.173-1.096.773-1.618 1.965-1.618h11.283c1.868 0 3.377.292 4.56.83-1.134 7.674-6.099 11.939-12.6 11.939h-5.57c-.733 0-1.281.375-1.61 1.333z"/>
    </g>
</svg>
