<svg xmlns="http://www.w3.org/2000/svg" width="21" height="20" fill="none" viewBox="0 0 21 20">
    <path fill="#fff" fill-opacity=".5" fill-rule="evenodd" d="M9.37 4.707h5.642c3.028 0 4.169 1.533 3.993 3.79-.29 3.719-2.54 5.775-5.522 5.775h-1.506c-.409 0-.684.27-.795 1.005l-.646 4.264c-.042.277-.188.44-.407.459H6.592c-.333 0-.451-.255-.364-.806l2.16-13.678c.087-.548.386-.809.982-.809z" clip-rule="evenodd"/>
    <path fill="#fff" fill-rule="evenodd" d="M5.843 0h5.647c1.59 0 3.477.052 4.739 1.165.843.743 1.285 1.928 1.183 3.2-.346 4.311-2.926 6.726-6.384 6.726H8.242c-.474 0-.788.315-.922 1.165L6.543 17.2c-.05.321-.19.51-.443.533H2.62c-.386 0-.523-.295-.422-.935L4.704.938C4.804.303 5.152 0 5.843 0z" clip-rule="evenodd"/>
    <path fill="#fff" fill-rule="evenodd" d="M7.401 11.758l.987-6.242c.086-.548.386-.809.982-.809h5.641c.934 0 1.689.146 2.28.415-.567 3.837-3.049 5.97-6.3 5.97H8.207c-.366 0-.64.187-.805.666z" clip-rule="evenodd"/>
</svg>
