<svg width="16" height="16" viewBox="0 0 16 16" fill="none" xmlns="http://www.w3.org/2000/svg">
<path fill-rule="evenodd" clip-rule="evenodd" d="M3.99992 1.33331H6.66658V2.66665H9.33325V1.33331H11.9999V2.66665H14.6666V5.33331V6.66665V14.6666H1.33325V6.66665V5.33331V2.66665H3.99992V1.33331ZM2.66659 6.66665H13.3333V13.3333H2.66659V6.66665ZM13.3333 5.33331H2.66659V3.99998H13.3333V5.33331ZM4.66658 7.99998H5.99992V9.33331H4.66658V7.99998ZM5.99992 10.6666H4.66658V12H5.99992V10.6666ZM7.33325 7.99998H8.66659V9.33331H7.33325V7.99998ZM8.66659 10.6666H7.33325V12H8.66659V10.6666ZM9.99992 7.99998H11.3333V9.33331H9.99992V7.99998ZM11.3333 10.6666H9.99992V12H11.3333V10.6666Z" fill="#8995A1"/>
</svg>
