<svg width="16" height="17" viewBox="0 0 16 17" fill="none" xmlns="http://www.w3.org/2000/svg">
<g clip-path="url(#clip0_6872_26790)">
<path d="M4.33576 1.43018L4.33576 1.43018C3.52213 1.88546 2.85151 2.56153 2.40002 3.38161" stroke="#0D2065" stroke-linecap="round" stroke-linejoin="round"/>
<path d="M2.52222 12.2764H14.2777" stroke="#0D2065" stroke-linecap="round" stroke-linejoin="round"/>
<path d="M14.2777 12.2763C14.2777 12.2763 13.1022 11.2449 13.1022 7.53789C13.1022 4.57639 11.0943 1.95605 8.39996 1.95605C5.7056 1.95605 3.69777 4.57639 3.69777 7.53789C3.69777 11.2646 2.52222 12.2763 2.52222 12.2763" stroke="#0D2065" stroke-linecap="round" stroke-linejoin="round"/>
<path d="M9.57558 14.6455C9.57558 15.2997 9.04927 15.8301 8.40004 15.8301C7.7508 15.8301 7.22449 15.2997 7.22449 14.6455" stroke="#0D2065" stroke-linecap="round" stroke-linejoin="round"/>
<path d="M12.4642 1.43018V1.43018C12.8684 1.65756 13.2397 1.93976 13.5677 2.26887V2.26887C13.8948 2.59922 14.1749 2.9737 14.4 3.38161" stroke="#0D2065" stroke-linecap="round" stroke-linejoin="round"/>
</g>
<defs>
<clipPath id="clip0_6872_26790">
<rect width="16" height="16" fill="white" transform="translate(0 0.630371)"/>
</clipPath>
</defs>
</svg>
