<?xml version="1.0" encoding="utf-8"?>
<!-- Generator: Adobe Illustrator 27.2.0, SVG Export Plug-In . SVG Version: 6.00 Build 0)  -->
<svg version="1.1" id="Layer_1" xmlns="http://www.w3.org/2000/svg" xmlns:xlink="http://www.w3.org/1999/xlink" x="0px" y="0px"
	 viewBox="0 0 48 48" style="enable-background:new 0 0 48 48;" xml:space="preserve">
<style type="text/css">
	.st0{fill:#FFFFFF;}
	.st1{fill:#1E88E5;}
	.st2{fill:#FBC02D;}
	.st3{fill:#4CAF50;}
	.st4{fill:#E53935;}
	.st5{fill:#1565C0;}
</style>
<rect x="11.4" y="11.2" class="st0" width="26.4" height="26.4"/>
<polygon class="st1" points="26.6,20.7 27.8,22.4 29.7,21.1 29.7,31.1 31.8,31.1 31.8,17.9 30.1,17.9 "/>
<path class="st1" d="M23.3,24.1c0.7-0.7,1.2-1.6,1.2-2.7c0-2.1-1.8-3.8-4.1-3.8c-1.9,0-3.6,1.2-4,2.9l2,0.5c0.2-0.8,1-1.4,2-1.4
	c1.1,0,2.1,0.8,2.1,1.7s-0.9,1.7-2.1,1.7h-1.2v2.1h1.2c1.3,0,2.4,0.9,2.4,2c0,1.1-1,2-2.3,2c-1.2,0-2.1-0.7-2.3-1.7l-2,0.3
	c0.3,2,2.2,3.4,4.3,3.4c2.4,0,4.4-1.8,4.4-4C24.9,25.9,24.3,24.8,23.3,24.1z"/>
<polygon class="st2" points="36.6,46 12.6,46 11.4,41.2 12.6,36.4 36.6,36.4 37.8,41.2 "/>
<polygon class="st3" points="41.4,37.6 46.2,36.4 46.2,12.4 41.4,11.2 36.6,12.4 36.6,36.4 "/>
<path class="st1" d="M36.6,12.4l1.2-4.8l-1.2-4.8h-30C4.6,2.8,3,4.4,3,6.4v30l4.8,1.2l4.8-1.2v-24H36.6z"/>
<polygon class="st4" points="36.6,36.4 36.6,46 46.2,36.4 "/>
<path class="st5" d="M42.6,2.8h-6v9.6h9.6v-6C46.2,4.4,44.6,2.8,42.6,2.8z"/>
<path class="st5" d="M6.6,46h6v-9.6H3v6C3,44.4,4.6,46,6.6,46z"/>
</svg>
