<?xml version="1.0" encoding="utf-8"?>
<!-- Generator: Adobe Illustrator 27.2.0, SVG Export Plug-In . SVG Version: 6.00 Build 0)  -->
<svg version="1.1" id="Layer_1" xmlns="http://www.w3.org/2000/svg" xmlns:xlink="http://www.w3.org/1999/xlink" x="0px" y="0px"
	 viewBox="0 0 18 24" style="enable-background:new 0 0 18 24;" xml:space="preserve">
<style type="text/css">
	.st0{fill:#5796FF;}
	.st1{fill:url(#SVGID_1_);}
	.st2{opacity:0.1;enable-background:new    ;}
	.st3{fill:#A1C4FF;}
	.st4{fill:#FFFFFF;}
	.st5{opacity:0.2;fill:#FFFFFF;enable-background:new    ;}
	.st6{fill:url(#SVGID_00000114790477753556404670000013677739163988509078_);}
</style>
<g>
	<path class="st0" d="M18,6l-6-6H2C0.9,0,0,0.9,0,2v20c0,1.1,0.9,2,2,2h14c1.1,0,2-0.9,2-2V6z"/>
	
		<linearGradient id="SVGID_1_" gradientUnits="userSpaceOnUse" x1="13.809" y1="19.6682" x2="19.2064" y2="14.2708" gradientTransform="matrix(1 0 0 -1 0 23.8898)">
		<stop  offset="0" style="stop-color:#000000;stop-opacity:0.1"/>
		<stop  offset="1" style="stop-color:#000000;stop-opacity:0"/>
	</linearGradient>
	<path class="st1" d="M14,6c-0.5,0-1-0.2-1.4-0.6l5.4,5.4V6H14z"/>
	<path class="st2" d="M16,23.8H2c-1.1,0-2-0.9-2-2V22c0,1.1,0.9,2,2,2h14c1.1,0,2-0.9,2-2v-0.2C18,22.9,17.1,23.8,16,23.8z"/>
	<path class="st3" d="M12,0v4c0,1.1,0.9,2,2,2h4L12,0z"/>
	<path class="st2" d="M14,5.8c-1.1,0-2-0.9-2-2V4c0,1.1,0.9,2,2,2h4l-0.2-0.2H14z"/>
	<g>
		<g id="XMLID_1459_">
			<rect x="5" y="11" class="st4" width="8" height="1"/>
		</g>
		<g id="XMLID_1460_">
			<rect x="5" y="13" class="st4" width="8" height="1"/>
		</g>
		<g id="XMLID_1461_">
			<rect x="5" y="15" class="st4" width="8" height="1"/>
		</g>
		<g id="XMLID_1462_">
			<rect x="5" y="17" class="st4" width="4.5" height="1"/>
		</g>
	</g>
	<path class="st5" d="M12,0H2C0.9,0,0,0.9,0,2v0.2c0-1.1,0.9-2,2-2h10"/>
	
		<linearGradient id="SVGID_00000137826156719466528190000003476674145575397515_" gradientUnits="userSpaceOnUse" x1="-2.7899" y1="16.3513" x2="19.9961" y2="5.726" gradientTransform="matrix(1 0 0 -1 0 23.8898)">
		<stop  offset="0" style="stop-color:#FFFFFF;stop-opacity:0.2"/>
		<stop  offset="1" style="stop-color:#FFFFFF;stop-opacity:0"/>
	</linearGradient>
	<path style="fill:url(#SVGID_00000137826156719466528190000003476674145575397515_);" d="M18,6l-6-6H2C0.9,0,0,0.9,0,2v20
		c0,1.1,0.9,2,2,2h14c1.1,0,2-0.9,2-2V6z"/>
</g>
</svg>
