<?xml version="1.0" encoding="utf-8"?>
<!-- Generator: Adobe Illustrator 27.2.0, SVG Export Plug-In . SVG Version: 6.00 Build 0)  -->
<svg version="1.1" id="Capa_1" xmlns="http://www.w3.org/2000/svg" xmlns:xlink="http://www.w3.org/1999/xlink" x="0px" y="0px"
	 viewBox="0 0 150 150" style="enable-background:new 0 0 150 150;" xml:space="preserve">
<style type="text/css">
	.st0{fill:#34A853;}
	.st1{fill:#E53935;}
	.st2{fill:#FBBC04;}
	.st3{opacity:0.2;fill:#FFFFFF;enable-background:new    ;}
	.st4{fill:#4285F4;}
	.st5{fill:#FFFFFF;}
</style>
<g>
	<path class="st0" d="M116.8,97.5c0,2-1.6,3.6-3.6,3.6H36.9c-2,0-3.6-1.6-3.6-3.6V22.8c0-2,1.6-3.6,3.6-3.6h76.3
		c2,0,3.6,1.6,3.6,3.6V97.5L116.8,97.5z"/>
	<path class="st1" d="M51.7,95.3c-0.6,1.9,0.6,3.8,2.3,4.4l70.6,19c1.7,0.4,3.7-0.7,4.1-2.6l16.7-62c0.6-1.9-0.6-3.9-2.3-4.4
		l-70.6-19c-1.7-0.4-3.7,0.7-4.1,2.6L51.7,95.3z"/>
	<path class="st2" d="M107.3,87.7c0.7,1.9-0.1,3.8-1.9,4.6l-74.4,27.1c-1.7,0.6-3.7-0.4-4.4-2.3l-22-60.5C4,54.8,4.8,52.8,6.5,52
		L81,25c1.7-0.6,3.7,0.4,4.4,2.3L107.3,87.7z"/>
	<path class="st3" d="M5,57.5c-0.7-1.9,0.1-3.9,1.9-4.6l74.4-27.1c1.7-0.6,3.7,0.4,4.3,2.1l-0.3-0.7c-0.7-1.9-2.7-2.9-4.4-2.3
		L6.5,52.2c-1.7,0.6-2.6,2.7-1.9,4.6l22,60.3l0,0L5,57.5z"/>
	<path class="st4" d="M129.6,131.2c0,2-1.6,3.6-3.6,3.6h-102c-2,0-3.6-1.6-3.6-3.6v-77c0-2,1.6-3.6,3.6-3.6h101.8
		c2,0,3.6,1.6,3.6,3.6v77H129.6z"/>
	<path class="st5" d="M110.1,81H79.5v-8h30.5c0.9,0,1.6,0.7,1.6,1.6v4.8C111.6,80.3,110.9,81,110.1,81z"/>
	<path class="st5" d="M110.1,111.5H79.5v-8h30.5c0.9,0,1.6,0.7,1.6,1.6v4.8C111.6,110.8,110.9,111.5,110.1,111.5z"/>
	<path class="st5" d="M114.9,96.2H79.5v-8h35.4c0.9,0,1.6,0.7,1.6,1.6v4.8C116.5,95.5,115.8,96.2,114.9,96.2z"/>
	<path class="st5" d="M52.3,89v7.3h10.4c-0.9,4.4-4.7,7.6-10.4,7.6c-6.3,0-11.4-5.3-11.4-11.7c0-6.3,5.1-11.7,11.4-11.7
		c2.9,0,5.4,1,7.4,2.9l0,0l5.6-5.6c-3.3-3.1-7.7-5-12.8-5c-10.7,0-19.2,8.6-19.2,19.2s8.6,19.2,19.2,19.2c11,0.3,18.3-7.6,18.3-18.5
		c0-1.3-0.1-2.4-0.3-3.7H52.3z"/>
</g>
</svg>
