<?xml version="1.0" encoding="utf-8"?>
<!-- Generator: Adobe Illustrator 27.2.0, SVG Export Plug-In . SVG Version: 6.00 Build 0)  -->
<svg version="1.1" id="Layer_1" xmlns="http://www.w3.org/2000/svg" xmlns:xlink="http://www.w3.org/1999/xlink" x="0px" y="0px"
	 viewBox="0 0 18 24" style="enable-background:new 0 0 18 24;" xml:space="preserve">
<style type="text/css">
	.st0{fill:#FFC720;}
	.st1{fill:url(#SVGID_1_);}
	.st2{opacity:0.1;enable-background:new    ;}
	.st3{fill:#FFE083;}
	.st4{opacity:0.2;fill:#FFFFFF;enable-background:new    ;}
	.st5{fill:#FFFFFF;}
	.st6{fill:url(#SVGID_00000139288650592656684430000003113546813499175566_);}
</style>
<g>
	<path class="st0" d="M18,6l-6-6H2C0.9,0,0,0.9,0,2v20c0,1.1,0.9,2,2,2h14c1.1,0,2-0.9,2-2V6z"/>
	
		<linearGradient id="SVGID_1_" gradientUnits="userSpaceOnUse" x1="13.809" y1="19.6682" x2="19.2064" y2="14.2708" gradientTransform="matrix(1 0 0 -1 0 23.8898)">
		<stop  offset="0" style="stop-color:#000000;stop-opacity:0.1"/>
		<stop  offset="1" style="stop-color:#000000;stop-opacity:0"/>
	</linearGradient>
	<path class="st1" d="M14,6c-0.5,0-1-0.2-1.4-0.6l5.4,5.4V6H14z"/>
	<path class="st2" d="M16,23.8H2c-1.1,0-2-0.9-2-2V22c0,1.1,0.9,2,2,2h14c1.1,0,2-0.9,2-2v-0.2C18,22.9,17.1,23.8,16,23.8z"/>
	<path class="st3" d="M12,0v4c0,1.1,0.9,2,2,2h4L12,0z"/>
	<path class="st2" d="M14,5.8c-1.1,0-2-0.9-2-2V4c0,1.1,0.9,2,2,2h4l-0.2-0.2H14z"/>
	<path class="st4" d="M12,0H2C0.9,0,0,0.9,0,2v0.2c0-1.1,0.9-2,2-2h10"/>
	<path class="st5" d="M12.5,9h-7C4.7,9,4,9.7,4,10.5v6C4,17.3,4.7,18,5.5,18h7c0.8,0,1.5-0.7,1.5-1.5v-6C14,9.7,13.3,9,12.5,9z
		 M5,15.5V11h8v4.5H5z"/>
	
		<linearGradient id="SVGID_00000133495648199921467340000014084184646887567769_" gradientUnits="userSpaceOnUse" x1="-2.7899" y1="16.3513" x2="19.9961" y2="5.726" gradientTransform="matrix(1 0 0 -1 0 23.8898)">
		<stop  offset="0" style="stop-color:#FFFFFF;stop-opacity:0.2"/>
		<stop  offset="1" style="stop-color:#FFFFFF;stop-opacity:0"/>
	</linearGradient>
	<path style="fill:url(#SVGID_00000133495648199921467340000014084184646887567769_);" d="M18,6l-6-6H2C0.9,0,0,0.9,0,2v20
		c0,1.1,0.9,2,2,2h14c1.1,0,2-0.9,2-2V6z"/>
</g>
</svg>
