<svg width="62" height="62" viewBox="0 0 62 62" fill="none" xmlns="http://www.w3.org/2000/svg">
<path d="M8.2666 16.2979C8.2666 15.831 8.58969 15.4262 9.04498 15.3228L29.7783 10.6106C30.4041 10.4684 30.9999 10.9441 30.9999 11.5858V41.333L13.1531 45.3891C10.65 45.958 8.2666 44.0555 8.2666 41.4886V16.2979Z" fill="#2277F6" fill-opacity="0.25" stroke="#0D2065" stroke-width="1.5"/>
<path d="M31 11.5858C31 10.9441 31.5959 10.4684 32.2216 10.6106L52.955 15.3228C53.4102 15.4262 53.7333 15.831 53.7333 16.2979V41.4886C53.7333 44.0555 51.3499 45.958 48.8468 45.3891L31 41.333V11.5858Z" fill="white" stroke="#0D2065" stroke-width="1.5"/>
<path d="M8.2666 16.7528C8.2666 16.1111 8.86246 15.6354 9.48822 15.7776L30.9999 20.6667V50.4139C30.9999 51.0556 30.4041 51.5312 29.7783 51.389L11.3801 47.2076C9.55897 46.7937 8.2666 45.1747 8.2666 43.3071V16.7528Z" fill="white" stroke="#0D2065" stroke-width="1.5"/>
<path d="M7.91586 16.2018C8.12187 15.7898 8.5827 15.5718 9.03191 15.6739L31.0001 20.6667L26.5352 29.5964C26.1232 30.4204 25.2016 30.8564 24.3031 30.6522L5.58561 26.3982C4.32069 26.1107 3.65988 24.7138 4.24 23.5535L7.91586 16.2018Z" fill="white" stroke="#0D2065" stroke-width="1.5"/>
<path d="M31 20.6667L52.5117 15.7776C53.1375 15.6354 53.7333 16.1111 53.7333 16.7528V43.3071C53.7333 45.1747 52.441 46.7937 50.6198 47.2076L32.2216 51.389C31.5959 51.5312 31 51.0556 31 50.4139V20.6667Z" fill="white" stroke="#0D2065" stroke-width="1.5"/>
<path d="M31 20.6667L53.7333 15.5L57.8845 24.6326C58.4087 25.7859 57.7423 27.1298 56.507 27.4105L37.7561 31.6721C36.8307 31.8824 35.8849 31.4134 35.4922 30.5494L31 20.6667Z" fill="#2277F6" stroke="#0D2065" stroke-width="1.5"/>
</svg>
