<svg width="16" height="17" viewBox="0 0 16 17" fill="none" xmlns="http://www.w3.org/2000/svg">
<path d="M1 1.5H2.86667V9.9H15" stroke="#0D2065" stroke-linecap="round" stroke-linejoin="round"/>
<path d="M4.2667 15.5002C5.0399 15.5002 5.6667 14.8734 5.6667 14.1002C5.6667 13.327 5.0399 12.7002 4.2667 12.7002C3.4935 12.7002 2.8667 13.327 2.8667 14.1002C2.8667 14.8734 3.4935 15.5002 4.2667 15.5002Z" stroke="#0D2065" stroke-linecap="round" stroke-linejoin="round"/>
<path d="M12.6667 15.5002C13.4399 15.5002 14.0667 14.8734 14.0667 14.1002C14.0667 13.327 13.4399 12.7002 12.6667 12.7002C11.8935 12.7002 11.2667 13.327 11.2667 14.1002C11.2667 14.8734 11.8935 15.5002 12.6667 15.5002Z" stroke="#0D2065" stroke-linecap="round" stroke-linejoin="round"/>
<path fill-rule="evenodd" clip-rule="evenodd" d="M14.4036 2.077C13.4955 1.1782 11.9797 1.35834 11.2667 2.42234C10.5527 1.3574 9.03693 1.17914 8.12973 2.077C7.33453 2.8638 7.33453 4.1406 8.12973 4.92834L11.2667 8.03354L14.4036 4.9274C15.1988 4.1406 15.1988 2.8638 14.4036 2.077Z" stroke="#0D2065" stroke-linecap="round" stroke-linejoin="round"/>
</svg>
