<svg width="16" height="17" viewBox="0 0 16 17" fill="none" xmlns="http://www.w3.org/2000/svg">
<g clip-path="url(#clip0_7101_28232)">
<path d="M7.45093 16.1304H5.23357C5.23585 16.1084 5.23885 16.0842 5.24272 16.0578L5.24273 16.0578L6.84193 5.1156L6.84193 5.11559C6.86441 4.96175 6.90331 4.92734 6.90426 4.9265L6.90427 4.92648L6.90435 4.92641C6.90573 4.92516 6.91237 4.91914 6.93395 4.91234C6.95833 4.90466 7.00228 4.896 7.07429 4.896H11.2507C12.2854 4.896 12.897 5.17753 13.2453 5.56781C13.5978 5.9627 13.7676 6.56584 13.708 7.39145C13.6065 8.79597 13.1669 9.8347 12.5419 10.5155C11.9226 11.1901 11.0906 11.5482 10.1189 11.5482H9.00411C8.71165 11.5482 8.43394 11.6635 8.23235 11.923C8.0545 12.152 7.96627 12.455 7.92036 12.7825C7.92036 12.7825 7.92036 12.7825 7.92036 12.7825L7.45093 16.1304Z" fill="#009DE2" stroke="#2277F6"/>
<path fill-rule="evenodd" clip-rule="evenodd" d="M4.46339 0.630371H8.64395C9.82142 0.630371 11.2179 0.671678 12.1521 1.56204C12.7761 2.15682 13.1036 3.10443 13.028 4.12174C12.7716 7.57141 10.8622 9.50356 8.30163 9.50356H6.23979C5.88885 9.50356 5.65623 9.75484 5.55726 10.4354L4.98189 14.3907C4.94458 14.6473 4.84164 14.7985 4.65372 14.8168H2.07847C1.79271 14.8168 1.69111 14.5806 1.76589 14.0689L3.62029 1.38094C3.6946 0.872478 3.95197 0.630371 4.46339 0.630371Z" fill="#113984"/>
<path fill-rule="evenodd" clip-rule="evenodd" d="M5.61719 10.0367L6.34729 5.04326C6.41136 4.60475 6.63335 4.396 7.07439 4.396H11.2508C11.9422 4.396 12.5007 4.51262 12.9385 4.72761C12.5189 7.79766 10.6814 9.50357 8.27503 9.50357H6.21318C5.94172 9.50357 5.73898 9.65342 5.61719 10.0367Z" fill="#172C70"/>
</g>
<defs>
<clipPath id="clip0_7101_28232">
<rect width="14.806" height="16" fill="white" transform="translate(0.508301 0.630371)"/>
</clipPath>
</defs>
</svg>
