<svg width="16" height="17" viewBox="0 0 16 17" fill="none" xmlns="http://www.w3.org/2000/svg">
<path d="M14 13.0714V14.3571C14 14.9883 13.4883 15.5 12.8571 15.5H2.71429C1.76751 15.5 1 14.7325 1 13.7857V3.21429C1 2.26751 1.76751 1.5 2.71429 1.5H11.7143C12.3455 1.5 12.8571 2.01167 12.8571 2.64286V3.35714" stroke="#0D2065" stroke-linecap="round" stroke-linejoin="round"/>
<path fill-rule="evenodd" clip-rule="evenodd" d="M14 12.5C14.5523 12.5 15 12.0523 15 11.5V8.5C15 7.94772 14.5523 7.5 14 7.5H11.5C10.1193 7.5 9 8.61929 9 10C9 11.3807 10.1193 12.5 11.5 12.5H14Z" stroke="#0D2065" stroke-linecap="round" stroke-linejoin="round"/>
<path d="M11.5 9.625C11.7071 9.625 11.875 9.79289 11.875 10C11.875 10.2071 11.7071 10.375 11.5 10.375C11.2929 10.375 11.125 10.2071 11.125 10C11.125 9.79289 11.2929 9.625 11.5 9.625" stroke="#0D2065" stroke-linecap="round" stroke-linejoin="round"/>
<path d="M14 7.5V6.05899C14 5.51974 13.5078 5.08259 12.9007 5.08259H4.18282C3.69618 5.10291 3.23834 4.87741 3 4.5" stroke="#0D2065" stroke-linecap="round" stroke-linejoin="round"/>
</svg>
