<svg width="142" height="153" viewBox="0 0 142 153" fill="none" xmlns="http://www.w3.org/2000/svg">
<path d="M41.2437 4.57518L44.9125 15.8747L20.3067 23.864L16.6379 12.5644C16.6009 12.4491 16.6018 12.3248 16.6405 12.2084C16.6791 12.092 16.7535 11.9893 16.8536 11.9143C16.9537 11.8392 17.0746 11.7955 17.1997 11.7891C17.3248 11.7828 17.4481 11.814 17.5527 11.8786L22.5684 15.0118C22.6458 15.0598 22.7338 15.0898 22.8258 15.0995C22.9178 15.1091 23.0113 15.0981 23.0991 15.0673C23.1869 15.0366 23.2668 14.9869 23.3325 14.922C23.3982 14.8571 23.4481 14.7788 23.4784 14.6931L27.0601 4.37551C27.091 4.2872 27.1427 4.20674 27.2111 4.14065C27.2795 4.07457 27.3626 4.02471 27.4537 3.99514C27.5448 3.96556 27.6413 3.95708 27.7355 3.9704C27.8296 3.98371 27.9187 4.01844 27.9956 4.07178L36.9633 10.3313C37.0381 10.3829 37.1245 10.417 37.2158 10.4308C37.3071 10.4447 37.4009 10.438 37.49 10.4113C37.5792 10.3846 37.6613 10.3386 37.7301 10.2768C37.7989 10.215 37.8525 10.139 37.8868 10.0547L40.1053 4.57262C40.1514 4.46008 40.2315 4.36317 40.3349 4.29485C40.4383 4.22652 40.5601 4.19006 40.6839 4.19034C40.8077 4.19062 40.9277 4.22763 41.0277 4.2964C41.1278 4.36518 41.2031 4.46245 41.2437 4.57518Z" fill="white" stroke="#0D2065" stroke-width="2.08632" stroke-miterlimit="10"/>
<g clip-path="url(#clip0_5827_23918)">
<path d="M114.829 31.1557V131.641C114.831 132.825 114.6 133.998 114.148 135.092C113.697 136.187 113.034 137.182 112.199 138.02C111.363 138.858 110.37 139.524 109.277 139.978C108.184 140.433 107.013 140.668 105.829 140.67H36.2044C35.0207 140.668 33.849 140.433 32.7561 139.978C31.6632 139.524 30.6706 138.858 29.8348 138.02C28.9991 137.182 28.3366 136.187 27.8852 135.092C27.4338 133.998 27.2024 132.825 27.2041 131.641V31.1557C27.2041 29.9742 27.437 28.8042 27.8895 27.7128C28.3419 26.6213 29.0051 25.6298 29.841 24.7949C30.6769 23.9601 31.6692 23.2982 32.7611 22.8472C33.853 22.3963 35.0231 22.165 36.2044 22.1668H55.5112C55.4322 22.7733 55.3929 23.3843 55.3936 23.9959C55.7147 27.9195 57.4999 31.5788 60.3943 34.2465C63.2888 36.9143 67.0808 38.3953 71.0168 38.3953C74.9527 38.3953 78.7447 36.9143 81.6392 34.2465C84.5336 31.5788 86.3188 27.9195 86.6399 23.9959C86.6406 23.3843 86.6013 22.7733 86.5223 22.1668H105.829C107.01 22.165 108.181 22.3963 109.272 22.8472C110.364 23.2982 111.357 23.9601 112.192 24.7949C113.028 25.6298 113.692 26.6213 114.144 27.7128C114.596 28.8042 114.829 29.9742 114.829 31.1557Z" fill="white"/>
<path opacity="0.25" fill-rule="evenodd" clip-rule="evenodd" d="M114.914 130.062C108.049 132.835 100.578 134.357 92.7635 134.357C59.118 134.357 31.843 106.148 31.843 71.3498C31.843 51.4553 40.7582 33.7143 54.6822 22.1672H36.2131C35.0306 22.1655 33.8594 22.3965 32.7665 22.847C31.6736 23.2976 30.6803 23.9587 29.8436 24.7928C29.0068 25.6268 28.343 26.6173 27.8901 27.7077C27.4372 28.798 27.2041 29.9668 27.2041 31.1471V131.531C27.2024 132.714 27.4341 133.885 27.8859 134.979C28.3377 136.072 29.0008 137.066 29.8374 137.903C30.6739 138.741 31.6675 139.405 32.7615 139.86C33.8554 140.314 35.0283 140.548 36.2131 140.55H105.905C107.09 140.548 108.263 140.314 109.357 139.86C110.451 139.405 111.444 138.741 112.281 137.903C113.118 137.066 113.781 136.072 114.232 134.979C114.684 133.885 114.916 132.714 114.914 131.531V130.062Z" fill="#2277F6"/>
<path d="M77.1661 104.889L66.2427 115.8" stroke="#0D2065" stroke-width="2.08632" stroke-linecap="round" stroke-linejoin="round"/>
<path d="M67.5135 108.626C68.7536 108.626 69.7589 107.622 69.7589 106.384C69.7589 105.147 68.7536 104.143 67.5135 104.143C66.2734 104.143 65.2681 105.147 65.2681 106.384C65.2681 107.622 66.2734 108.626 67.5135 108.626Z" stroke="#0D2065" stroke-width="2.08632" stroke-linecap="round" stroke-linejoin="round"/>
<path d="M77.1653 116.546C78.4054 116.546 79.4107 115.543 79.4107 114.305C79.4107 113.067 78.4054 112.063 77.1653 112.063C75.9252 112.063 74.9199 113.067 74.9199 114.305C74.9199 115.543 75.9252 116.546 77.1653 116.546Z" stroke="#0D2065" stroke-width="2.08632" stroke-linecap="round" stroke-linejoin="round"/>
<path d="M114.829 31.1557V131.641C114.831 132.825 114.6 133.998 114.148 135.092C113.697 136.187 113.034 137.182 112.199 138.02C111.363 138.858 110.37 139.524 109.277 139.978C108.184 140.433 107.013 140.668 105.829 140.67H36.2044C35.0207 140.668 33.849 140.433 32.7561 139.978C31.6632 139.524 30.6706 138.858 29.8348 138.02C28.9991 137.182 28.3366 136.187 27.8852 135.092C27.4338 133.998 27.2024 132.825 27.2041 131.641V31.1557C27.2041 29.9742 27.437 28.8042 27.8895 27.7128C28.3419 26.6213 29.0051 25.6298 29.841 24.7949C30.6769 23.9601 31.6692 23.2982 32.7611 22.8472C33.853 22.3963 35.0231 22.165 36.2044 22.1668H55.5112C55.4322 22.7733 55.3929 23.3843 55.3936 23.9959C55.7147 27.9195 57.4999 31.5788 60.3943 34.2465C63.2888 36.9143 67.0808 38.3953 71.0168 38.3953C74.9527 38.3953 78.7447 36.9143 81.6392 34.2465C84.5336 31.5788 86.3188 27.9195 86.6399 23.9959C86.6406 23.3843 86.6013 22.7733 86.5223 22.1668H105.829C107.01 22.165 108.181 22.3963 109.272 22.8472C110.364 23.2982 111.357 23.9601 112.192 24.7949C113.028 25.6298 113.692 26.6213 114.144 27.7128C114.596 28.8042 114.829 29.9742 114.829 31.1557Z" stroke="#0D2065" stroke-width="2.08632" stroke-linecap="round" stroke-linejoin="round"/>
<path d="M27.6709 84.8386H31.0414" stroke="#0D2065" stroke-width="2.08632" stroke-linecap="round" stroke-linejoin="round"/>
<path d="M35.2539 84.8386H38.6244" stroke="#0D2065" stroke-width="2.08632" stroke-linecap="round" stroke-linejoin="round"/>
<path d="M42.8389 84.8386H46.2094" stroke="#0D2065" stroke-width="2.08632" stroke-linecap="round" stroke-linejoin="round"/>
<path d="M50.4204 84.8386H53.7909" stroke="#0D2065" stroke-width="2.08632" stroke-linecap="round" stroke-linejoin="round"/>
<path d="M58.0054 84.8386H61.3759" stroke="#0D2065" stroke-width="2.08632" stroke-linecap="round" stroke-linejoin="round"/>
<path d="M65.5884 84.8386H68.9589" stroke="#0D2065" stroke-width="2.08632" stroke-linecap="round" stroke-linejoin="round"/>
<path d="M73.1729 84.8386H76.5434" stroke="#0D2065" stroke-width="2.08632" stroke-linecap="round" stroke-linejoin="round"/>
<path d="M80.7563 84.8386H84.1269" stroke="#0D2065" stroke-width="2.08632" stroke-linecap="round" stroke-linejoin="round"/>
<path d="M88.3394 84.8386H91.7099" stroke="#0D2065" stroke-width="2.08632" stroke-linecap="round" stroke-linejoin="round"/>
<path d="M95.9238 84.8386H99.2944" stroke="#0D2065" stroke-width="2.08632" stroke-linecap="round" stroke-linejoin="round"/>
<path d="M103.507 84.8386H106.878" stroke="#0D2065" stroke-width="2.08632" stroke-linecap="round" stroke-linejoin="round"/>
<path d="M111.092 84.8386H114.462" stroke="#0D2065" stroke-width="2.08632" stroke-linecap="round" stroke-linejoin="round"/>
<path d="M79.2567 67.3064C79.3658 68.222 79.2793 69.1503 79.0029 70.0301C78.7265 70.91 78.2664 71.7213 77.653 72.4108C77.0397 73.1002 76.2869 73.6521 75.4443 74.03C74.6017 74.4079 73.6885 74.6033 72.7648 74.6033C71.8411 74.6033 70.9278 74.4079 70.0852 74.03C69.2427 73.6521 68.4899 73.1002 67.8765 72.4108C67.2631 71.7213 66.8031 70.91 66.5266 70.0301C66.2502 69.1503 66.1637 68.222 66.2728 67.3064H79.2567Z" fill="#0D2065"/>
<path d="M48.0714 68.7913C51.2271 68.7913 53.7854 67.8855 53.7854 66.7682C53.7854 65.6509 51.2271 64.7451 48.0714 64.7451C44.9157 64.7451 42.3574 65.6509 42.3574 66.7682C42.3574 67.8855 44.9157 68.7913 48.0714 68.7913Z" fill="#F77ABD"/>
<path d="M94.1236 68.7913C97.2794 68.7913 99.8376 67.8855 99.8376 66.7682C99.8376 65.6509 97.2794 64.7451 94.1236 64.7451C90.9679 64.7451 88.4097 65.6509 88.4097 66.7682C88.4097 67.8855 90.9679 68.7913 94.1236 68.7913Z" fill="#F77ABD"/>
<path d="M13.1211 66.2881L27.2164 82.5641" stroke="#0D2065" stroke-width="2.08632" stroke-linecap="round" stroke-linejoin="round"/>
</g>
<path d="M115.295 85.1252C116.464 85.0798 117.63 85.2712 118.724 85.6881C119.817 86.1049 120.815 86.7386 121.658 87.5511C122.502 88.3636 123.172 89.3382 123.63 90.4166C124.089 91.495 124.325 92.6549 124.325 93.8269C124.325 94.9989 124.089 96.1588 123.63 97.2372C123.172 98.3156 122.502 99.2902 121.658 100.103C120.815 100.915 119.817 101.549 118.724 101.966C117.63 102.383 116.464 102.574 115.295 102.529" stroke="#0D2065" stroke-width="2.08632" stroke-linecap="round" stroke-linejoin="round"/>
<path d="M91.9271 57.5874C95.1534 57.5874 97.7688 54.972 97.7688 51.7457C97.7688 48.5195 95.1534 45.9041 91.9271 45.9041C88.7009 45.9041 86.0854 48.5195 86.0854 51.7457C86.0854 54.972 88.7009 57.5874 91.9271 57.5874Z" fill="#0D2065"/>
<path d="M90.2579 50.9084C91.1797 50.9084 91.927 50.1612 91.927 49.2394C91.927 48.3176 91.1797 47.5703 90.2579 47.5703C89.3361 47.5703 88.5889 48.3176 88.5889 49.2394C88.5889 50.1612 89.3361 50.9084 90.2579 50.9084Z" fill="white"/>
<path d="M53.5404 57.5874C56.7667 57.5874 59.3821 54.972 59.3821 51.7457C59.3821 48.5195 56.7667 45.9041 53.5404 45.9041C50.3141 45.9041 47.6987 48.5195 47.6987 51.7457C47.6987 54.972 50.3141 57.5874 53.5404 57.5874Z" fill="#0D2065"/>
<path d="M51.8712 50.9084C52.793 50.9084 53.5403 50.1612 53.5403 49.2394C53.5403 48.3176 52.793 47.5703 51.8712 47.5703C50.9494 47.5703 50.2021 48.3176 50.2021 49.2394C50.2021 50.1612 50.9494 50.9084 51.8712 50.9084Z" fill="white"/>
<defs>
<clipPath id="clip0_5827_23918">
<rect width="118.503" height="121.006" fill="white" transform="translate(11.814 20.8618)"/>
</clipPath>
</defs>
</svg>
