<svg width="1024" height="1024" viewBox="0 0 1024 1024" fill="none" xmlns="http://www.w3.org/2000/svg">
<path d="M0 236.308C0 105.799 105.799 0 236.308 0H787.692C918.201 0 1024 105.799 1024 236.308V787.692C1024 918.201 918.201 1024 787.692 1024H236.308C105.799 1024 0 918.201 0 787.692V236.308Z" fill="#0D2065"/>
<mask id="mask0" mask-type="alpha" maskUnits="userSpaceOnUse" x="196" y="196" width="632" height="632">
<path d="M512.002 196.922C686.014 196.922 827.079 337.987 827.079 511.999C827.079 686.011 686.014 827.076 512.002 827.076C337.99 827.076 196.925 686.011 196.925 511.999C196.925 337.987 337.99 196.922 512.002 196.922ZM512.002 354.46C424.996 354.46 354.464 424.993 354.464 511.999C354.464 599.005 424.996 669.537 512.002 669.537C599.008 669.537 669.54 599.005 669.54 511.999C669.54 424.993 599.008 354.46 512.002 354.46Z" fill="white"/>
</mask>
<g mask="url(#mask0)">
<path d="M512.002 196.922C686.014 196.922 827.079 337.987 827.079 511.999C827.079 686.011 686.014 827.076 512.002 827.076C337.99 827.076 196.925 686.011 196.925 511.999C196.925 337.987 337.99 196.922 512.002 196.922ZM512.002 354.46C424.996 354.46 354.464 424.993 354.464 511.999C354.464 599.005 424.996 669.537 512.002 669.537C599.008 669.537 669.54 599.005 669.54 511.999C669.54 424.993 599.008 354.46 512.002 354.46Z" fill="url(#paint0_linear)"/>
<g filter="url(#filter0_f)">
<path d="M512.001 858.585C628.009 858.585 722.053 823.319 722.053 779.816C722.053 736.313 628.009 701.047 512.001 701.047C395.993 701.047 301.95 736.313 301.95 779.816C301.95 823.319 395.993 858.585 512.001 858.585Z" fill="#89FFEA"/>
</g>
</g>
<defs>
<filter id="filter0_f" x="-210.05" y="189.047" width="1444.1" height="1181.54" filterUnits="userSpaceOnUse" color-interpolation-filters="sRGB">
<feFlood flood-opacity="0" result="BackgroundImageFix"/>
<feBlend mode="normal" in="SourceGraphic" in2="BackgroundImageFix" result="shape"/>
<feGaussianBlur stdDeviation="256" result="effect1_foregroundBlur"/>
</filter>
<linearGradient id="paint0_linear" x1="512.002" y1="196.922" x2="512.002" y2="827.076" gradientUnits="userSpaceOnUse">
<stop stop-color="#0027DA"/>
<stop offset="1" stop-color="#13B8C2"/>
</linearGradient>
</defs>
</svg>
