<svg width="160" height="160" viewBox="0 0 160 160" fill="none" xmlns="http://www.w3.org/2000/svg">
<path d="M147.406 41.4167L125.15 142.757C124.889 143.951 124.396 145.083 123.699 146.086C123.002 147.09 122.114 147.946 121.086 148.607C120.059 149.267 118.911 149.718 117.709 149.934C116.507 150.15 115.274 150.127 114.081 149.867L43.9254 134.433C42.7331 134.168 41.6045 133.672 40.6039 132.971C39.6034 132.27 38.7506 131.379 38.0941 130.348C37.4377 129.318 36.9905 128.168 36.7781 126.964C36.5656 125.76 36.5921 124.526 36.8561 123.332L59.1121 21.9922C59.3738 20.8006 59.8676 19.6723 60.5653 18.6719C61.2629 17.6715 62.1507 16.8185 63.178 16.1618C64.2052 15.5052 65.3516 15.0577 66.5517 14.8449C67.7518 14.6322 68.982 14.6583 70.172 14.9219L89.6261 19.2018C89.4122 19.796 89.2373 20.4035 89.1025 21.0205C88.557 25.0486 89.5453 29.1347 91.871 32.4668C94.1967 35.7989 97.6896 38.1331 101.656 39.0056C105.622 39.8781 109.77 39.2251 113.278 37.1763C116.785 35.1275 119.395 31.8329 120.587 27.947C120.723 27.3304 120.819 26.7054 120.874 26.0763L140.328 30.3562C141.519 30.6163 142.646 31.1089 143.647 31.8057C144.647 32.5026 145.5 33.39 146.158 34.4173C146.815 35.4446 147.264 36.5915 147.478 37.7926C147.692 38.9936 147.668 40.2251 147.406 41.4167Z" stroke="#0D2065" stroke-width="1.5" stroke-linecap="round" stroke-linejoin="round"/>
<path opacity="0.25" fill-rule="evenodd" clip-rule="evenodd" d="M125.585 141.184C118.053 142.458 110.188 142.337 102.314 140.604C68.412 133.146 47.1768 98.6506 54.884 63.557C59.2904 43.4927 72.2036 27.5768 88.7919 19.0183L70.1808 14.9239C68.9897 14.66 67.7584 14.6333 66.5573 14.8454C65.3562 15.0575 64.209 15.5041 63.1811 16.1597C62.1533 16.8154 61.265 17.6672 60.5672 18.6664C59.8693 19.6656 59.3756 20.7926 59.1141 21.983L36.8806 123.221C36.6169 124.413 36.5909 125.646 36.804 126.849C37.0171 128.051 37.4652 129.201 38.1226 130.231C38.7801 131.261 39.6341 132.152 40.6358 132.852C41.6375 133.553 42.7673 134.049 43.9607 134.314L114.185 149.763C115.379 150.024 116.613 150.047 117.815 149.831C119.018 149.616 120.167 149.166 121.195 148.507C122.224 147.847 123.112 146.992 123.809 145.99C124.507 144.987 125 143.857 125.26 142.664L125.585 141.184Z" fill="#2277F6"/>
<path d="M93.1225 107.434L79.6991 116.017" stroke="#0D2065" stroke-width="1.5" stroke-linecap="round" stroke-linejoin="round"/>
<path d="M82.5695 109.062C83.819 109.337 85.0543 108.547 85.3285 107.299C85.6026 106.051 84.8119 104.816 83.5623 104.541C82.3128 104.266 81.0775 105.055 80.8034 106.303C80.5292 107.552 81.3199 108.787 82.5695 109.062Z" stroke="#0D2065" stroke-width="1.5" stroke-linecap="round" stroke-linejoin="round"/>
<path d="M90.5407 119.191C91.7902 119.465 93.0255 118.676 93.2996 117.428C93.5738 116.179 92.7831 114.945 91.5335 114.67C90.284 114.395 89.0487 115.184 88.7746 116.432C88.5004 117.681 89.2911 118.916 90.5407 119.191Z" stroke="#0D2065" stroke-width="1.5" stroke-linecap="round" stroke-linejoin="round"/>
<path d="M47.6904 76.2393L51.0865 76.9864" stroke="#0D2065" stroke-width="1.5" stroke-linecap="round" stroke-linejoin="round"/>
<path d="M55.332 77.9199L58.7281 78.667" stroke="#0D2065" stroke-width="1.5" stroke-linecap="round" stroke-linejoin="round"/>
<path d="M62.9736 79.6016L66.3697 80.3487" stroke="#0D2065" stroke-width="1.5" stroke-linecap="round" stroke-linejoin="round"/>
<path d="M70.6152 81.2822L74.0113 82.0294" stroke="#0D2065" stroke-width="1.5" stroke-linecap="round" stroke-linejoin="round"/>
<path d="M78.2563 82.9639L81.6524 83.711" stroke="#0D2065" stroke-width="1.5" stroke-linecap="round" stroke-linejoin="round"/>
<path d="M85.8979 84.6445L89.294 85.3916" stroke="#0D2065" stroke-width="1.5" stroke-linecap="round" stroke-linejoin="round"/>
<path d="M93.5396 86.3252L96.9356 87.0723" stroke="#0D2065" stroke-width="1.5" stroke-linecap="round" stroke-linejoin="round"/>
<path d="M101.181 88.0068L104.577 88.754" stroke="#0D2065" stroke-width="1.5" stroke-linecap="round" stroke-linejoin="round"/>
<path d="M108.823 89.6875L112.219 90.4346" stroke="#0D2065" stroke-width="1.5" stroke-linecap="round" stroke-linejoin="round"/>
<path d="M116.464 91.3691L119.86 92.1163" stroke="#0D2065" stroke-width="1.5" stroke-linecap="round" stroke-linejoin="round"/>
<path d="M124.105 93.0508L127.501 93.7979" stroke="#0D2065" stroke-width="1.5" stroke-linecap="round" stroke-linejoin="round"/>
<path d="M131.747 94.7314L135.143 95.4786" stroke="#0D2065" stroke-width="1.5" stroke-linecap="round" stroke-linejoin="round"/>
<path d="M59.8363 65.0871L46.7882 76.3332" stroke="#0D2065" stroke-width="1.5" stroke-linecap="round" stroke-linejoin="round"/>
<path d="M148.13 84.5119L135.082 95.758" stroke="#0D2065" stroke-width="1.5" stroke-linecap="round" stroke-linejoin="round"/>
<path d="M102.752 73.6472C102.659 74.5948 102.367 75.5118 101.893 76.3378C101.42 77.1638 100.776 77.8801 100.006 78.4394C99.2349 78.9988 98.3542 79.3885 97.4215 79.5828C96.4888 79.7772 95.5253 79.7718 94.5945 79.567C93.6637 79.3622 92.7868 78.9627 92.0215 78.3948C91.2562 77.8269 90.6199 77.1035 90.1546 76.2722C89.6892 75.4409 89.4053 74.5207 89.3217 73.5721C89.238 72.6235 89.3564 71.6682 89.6692 70.7689L102.752 73.6472Z" fill="#0D2065"/>
<path d="M71.4346 66.2545C74.6145 66.954 77.3928 66.6076 77.6403 65.4808C77.8878 64.354 75.5106 62.8734 72.3308 62.1739C69.151 61.4743 66.3726 61.8207 66.1252 62.9475C65.8777 64.0743 68.2548 65.5549 71.4346 66.2545Z" fill="#F77ABD"/>
<path d="M117.838 76.4634C121.018 77.163 123.796 76.8166 124.044 75.6898C124.291 74.563 121.914 73.0824 118.734 72.3829C115.554 71.6833 112.776 72.0297 112.528 73.1565C112.281 74.2833 114.658 75.7639 117.838 76.4634Z" fill="#F77ABD"/>
<path d="M55.4756 36.7773L144.61 56.3869L144.28 57.893C141.91 68.6816 131.244 75.5036 120.457 73.1303L70.3876 62.1152C59.5999 59.7419 52.7755 49.0721 55.1448 38.2835L55.4756 36.7773Z" fill="#2277F6"/>
<path d="M12.3389 84.6804C31.9776 64.2968 45.3301 62.2347 49.5515 63.7516L40.3097 105.833L12.3389 84.6804Z" fill="#2277F6" stroke="#0D2065" stroke-width="1.5" stroke-linecap="round" stroke-linejoin="round"/>
<path d="M56.3164 36.9629L143.769 56.2024L143.439 57.7086C141.069 68.4972 130.403 75.3191 119.616 72.9458L71.2284 62.3007C60.4407 59.9274 53.6163 49.2576 55.9856 38.469L56.3164 36.9629Z" stroke="#0D2065" stroke-width="1.5"/>
<path d="M24.7597 99.1954L16.672 110.155" stroke="#0D2065" stroke-width="1.5" stroke-linecap="round" stroke-linejoin="round"/>
<path d="M24.7597 112.121L16.672 123.081" stroke="#0D2065" stroke-width="1.5" stroke-linecap="round" stroke-linejoin="round"/>
<path d="M13.5669 100.057L5.47914 111.016" stroke="#0D2065" stroke-width="1.5" stroke-linecap="round" stroke-linejoin="round"/>
<ellipse cx="77.3702" cy="52.856" rx="5.59629" ry="5.60116" fill="white"/>
<ellipse cx="119.558" cy="62.3346" rx="5.59629" ry="5.60116" fill="white"/>
</svg>
