<svg width="146" height="126" viewBox="0 0 146 126" fill="none" xmlns="http://www.w3.org/2000/svg">
<g opacity="0.25">
<path fill-rule="evenodd" clip-rule="evenodd" d="M4.00347 53.2666C2.89698 50.7366 4.05101 47.7886 6.58106 46.6821L106.455 3.0036C108.985 1.89712 111.933 3.05114 113.039 5.58119L121.361 24.6087C121.361 24.6087 121.361 24.6087 121.361 24.6087C112.958 28.2835 109.228 38.3091 113.03 47.0014C116.831 55.6938 126.725 59.7614 135.127 56.0866C135.127 56.0866 135.127 56.0866 135.127 56.0866L142.301 72.4906C143.408 75.0207 142.254 77.9687 139.724 79.0752L39.85 122.754C37.3199 123.86 34.3719 122.706 33.2654 120.176L26.0914 103.772C34.494 100.097 38.2239 90.0718 34.4224 81.3795C30.621 72.6871 20.7276 68.6196 12.325 72.2943L4.00347 53.2666Z" fill="#2277F6"/>
</g>
<path d="M6.58106 46.6821L6.28054 45.9949L6.58106 46.6821ZM106.455 3.0036L106.154 2.31644L106.455 3.0036ZM121.361 24.6087L121.661 25.2958C122.041 25.1299 122.214 24.6877 122.048 24.3082L121.361 24.6087ZM135.127 56.0866L135.814 55.786C135.648 55.4065 135.206 55.2334 134.827 55.3994L135.127 56.0866ZM139.724 79.0752L139.423 78.388L139.724 79.0752ZM39.85 122.754L40.1505 123.441L39.85 122.754ZM26.0914 103.772L25.7909 103.085C25.4114 103.251 25.2383 103.693 25.4043 104.073L26.0914 103.772ZM12.325 72.2943L11.6378 72.5948C11.8038 72.9743 12.246 73.1474 12.6255 72.9815L12.325 72.2943ZM6.28054 45.9949C3.37098 47.2674 2.04385 50.6576 3.31631 53.5671L4.69063 52.9661C3.75011 50.8155 4.73104 48.3098 6.88158 47.3692L6.28054 45.9949ZM106.154 2.31644L6.28054 45.9949L6.88158 47.3692L106.755 3.69076L106.154 2.31644ZM113.727 5.28067C112.454 2.37112 109.064 1.04398 106.154 2.31644L106.755 3.69076C108.906 2.75025 111.412 3.73117 112.352 5.88171L113.727 5.28067ZM122.048 24.3082L113.727 5.28067L112.352 5.88171L120.674 24.9092L122.048 24.3082ZM121.661 25.2959C121.661 25.2959 121.661 25.2959 121.661 25.2959C121.661 25.2958 121.661 25.2958 121.661 25.2958L121.06 23.9215C121.06 23.9215 121.06 23.9215 121.06 23.9215C121.06 23.9215 121.06 23.9215 121.06 23.9216L121.661 25.2959ZM113.717 46.7009C110.072 38.3659 113.66 28.7952 121.661 25.2959L121.06 23.9216C112.256 27.7718 108.385 38.2522 112.342 47.302L113.717 46.7009ZM134.827 55.3994C126.825 58.8987 117.362 55.0359 113.717 46.7009L112.342 47.302C116.3 56.3517 126.624 60.624 135.428 56.7738L134.827 55.3994ZM134.827 55.3994C134.827 55.3994 134.827 55.3994 134.827 55.3994C134.827 55.3994 134.827 55.3994 134.827 55.3994L135.428 56.7738C135.428 56.7738 135.428 56.7737 135.428 56.7737C135.428 56.7737 135.428 56.7737 135.428 56.7737L134.827 55.3994ZM142.989 72.1901L135.814 55.786L134.44 56.3871L141.614 72.7912L142.989 72.1901ZM140.024 79.7623C142.934 78.4899 144.261 75.0997 142.989 72.1901L141.614 72.7912C142.555 74.9417 141.574 77.4475 139.423 78.388L140.024 79.7623ZM40.1505 123.441L140.024 79.7623L139.423 78.388L39.5494 122.066L40.1505 123.441ZM32.5783 120.477C33.8507 123.386 37.2409 124.713 40.1505 123.441L39.5494 122.066C37.3989 123.007 34.8931 122.026 33.9526 119.876L32.5783 120.477ZM25.4043 104.073L32.5783 120.477L33.9526 119.876L26.7786 103.472L25.4043 104.073ZM33.7353 81.68C37.3805 90.015 33.7922 99.5857 25.7909 103.085L26.3919 104.459C35.1958 100.609 39.0674 90.1287 35.1096 81.079L33.7353 81.68ZM12.6255 72.9815C20.6268 69.4822 30.0901 73.345 33.7353 81.68L35.1096 81.079C31.1518 72.0292 20.8284 67.7569 12.0245 71.6071L12.6255 72.9815ZM3.31631 53.5671L11.6378 72.5948L13.0121 71.9938L4.69063 52.9661L3.31631 53.5671Z" fill="#0D2065"/>
<path fill-rule="evenodd" clip-rule="evenodd" d="M24.1406 44.75C24.1406 41.9886 26.3792 39.75 29.1406 39.75H138.148C140.909 39.75 143.148 41.9886 143.148 44.75L143.148 65.5177C133.977 65.5177 126.542 73.2087 126.542 82.696C126.542 92.1833 133.977 99.8743 143.148 99.8743L143.148 117.778C143.148 120.54 140.909 122.778 138.148 122.778H29.1406C26.3792 122.778 24.1406 120.54 24.1406 117.778V99.8743C33.3116 99.8742 40.7461 92.1833 40.7461 82.696C40.7461 73.2088 33.3116 65.5178 24.1406 65.5177V44.75Z" fill="white"/>
<path d="M143.148 44.75H142.398V44.75L143.148 44.75ZM143.148 65.5177V66.2677C143.347 66.2677 143.538 66.1887 143.678 66.0481C143.819 65.9074 143.898 65.7167 143.898 65.5177H143.148ZM143.148 99.8743H143.898C143.898 99.6754 143.819 99.4846 143.678 99.344C143.538 99.2033 143.347 99.1243 143.148 99.1243V99.8743ZM143.148 117.778H142.398H143.148ZM24.1406 99.8743L24.1406 99.1243C23.7264 99.1243 23.3906 99.4601 23.3906 99.8743H24.1406ZM24.1406 65.5177H23.3906C23.3906 65.9319 23.7264 66.2677 24.1406 66.2677L24.1406 65.5177ZM29.1406 39C25.965 39 23.3906 41.5744 23.3906 44.75H24.8906C24.8906 42.4028 26.7934 40.5 29.1406 40.5V39ZM138.148 39H29.1406V40.5H138.148V39ZM143.898 44.75C143.898 41.5744 141.324 39 138.148 39V40.5C140.495 40.5 142.398 42.4028 142.398 44.75H143.898ZM143.898 65.5177L143.898 44.75L142.398 44.75L142.398 65.5177H143.898ZM127.292 82.696C127.292 73.5988 134.415 66.2677 143.148 66.2677V64.7677C133.539 64.7677 125.792 72.8187 125.792 82.696H127.292ZM143.148 99.1243C134.415 99.1243 127.292 91.7933 127.292 82.696H125.792C125.792 92.5734 133.539 100.624 143.148 100.624V99.1243ZM143.898 117.778L143.898 99.8743H142.398L142.398 117.778H143.898ZM138.148 123.528C141.324 123.528 143.898 120.954 143.898 117.778H142.398C142.398 120.126 140.495 122.028 138.148 122.028V123.528ZM29.1406 123.528H138.148V122.028H29.1406V123.528ZM23.3906 117.778C23.3906 120.954 25.965 123.528 29.1406 123.528V122.028C26.7934 122.028 24.8906 120.126 24.8906 117.778H23.3906ZM23.3906 99.8743V117.778H24.8906V99.8743H23.3906ZM39.9961 82.696C39.9961 91.7932 32.8736 99.1242 24.1406 99.1243L24.1406 100.624C33.7496 100.624 41.4961 92.5733 41.4961 82.696H39.9961ZM24.1406 66.2677C32.8736 66.2678 39.9961 73.5988 39.9961 82.696H41.4961C41.4961 72.8187 33.7496 64.7678 24.1406 64.7677L24.1406 66.2677ZM23.3906 44.75V65.5177H24.8906V44.75H23.3906Z" fill="#0D2065"/>
<path d="M102.055 74.2021L83.8816 92.3106" stroke="#0D2065" stroke-width="1.5" stroke-linecap="round" stroke-linejoin="round"/>
<path d="M86.0039 80.4018C88.0655 80.4018 89.738 78.7363 89.7396 76.6819C89.7412 74.6274 88.0712 72.9619 86.0097 72.9619C83.9481 72.9619 82.2756 74.6274 82.274 76.6819C82.2724 78.7363 83.9424 80.4018 86.0039 80.4018Z" stroke="#0D2065" stroke-width="1.5" stroke-linecap="round" stroke-linejoin="round"/>
<path d="M102.04 93.5503C104.102 93.5503 105.774 91.8848 105.776 89.8303C105.777 87.7758 104.107 86.1104 102.046 86.1104C99.9842 86.1104 98.3117 87.7758 98.3101 89.8303C98.3086 91.8848 99.9785 93.5503 102.04 93.5503Z" stroke="#0D2065" stroke-width="1.5" stroke-linecap="round" stroke-linejoin="round"/>
<path d="M57.3525 41.1338L57.3525 121.395" stroke="#0D2065" stroke-width="1.5" stroke-linecap="round" stroke-linejoin="round" stroke-dasharray="3 3"/>
</svg>
