<svg width="170" height="170" viewBox="0 0 170 170" fill="none" xmlns="http://www.w3.org/2000/svg">
<path d="M139.103 28.6709L138.255 31.4172C137.527 33.7846 136.23 35.9379 134.477 37.6892C132.724 39.4405 130.569 40.7365 128.2 41.464L125.474 42.2878L128.2 43.1346C130.571 43.8585 132.728 45.1533 134.481 46.9051C136.235 48.6569 137.53 50.8121 138.255 53.1814L139.103 55.9048L139.927 53.1814C140.655 50.814 141.952 48.6606 143.705 46.9094C145.458 45.1581 147.613 43.8621 149.982 43.1346L152.708 42.2878L149.982 41.464C147.615 40.7329 145.461 39.4357 143.709 37.685C141.957 35.9342 140.659 33.7827 139.927 31.4172L139.103 28.6709" stroke="#0D2065" stroke-width="1.5" stroke-linecap="round" stroke-linejoin="round"/>
<path d="M148.629 16.8691L148.261 18.1507C147.946 19.2555 147.384 20.2604 146.624 21.0777C145.865 21.895 144.931 22.4997 143.904 22.8392L142.723 23.2237L143.904 23.6189C144.932 23.9567 145.866 24.5609 146.626 25.3784C147.386 26.1959 147.947 27.2017 148.261 28.3074L148.629 29.5783L148.986 28.3074C149.302 27.2026 149.864 26.1977 150.623 25.3804C151.383 24.5632 152.317 23.9584 153.343 23.6189L154.524 23.2237L153.343 22.8392C152.317 22.4981 151.384 21.8927 150.625 21.0757C149.866 20.2587 149.303 19.2547 148.986 18.1507L148.629 16.8691" stroke="#0D2065" stroke-width="1.5" stroke-linecap="round" stroke-linejoin="round"/>
<path d="M32.4305 41.3799L32.0632 42.5699C31.7477 43.5958 31.1856 44.5289 30.4261 45.2878C29.6666 46.0467 28.7327 46.6083 27.7059 46.9235L26.5248 47.2806L27.7059 47.6475C28.7335 47.9612 29.6682 48.5223 30.428 49.2814C31.1877 50.0405 31.7492 50.9744 32.0632 52.0011L32.4305 53.1812L32.7878 52.0011C33.1033 50.9752 33.6653 50.0421 34.4249 49.2832C35.1844 48.5243 36.1183 47.9627 37.145 47.6475L38.3262 47.2806L37.145 46.9235C36.1191 46.6068 35.186 46.0446 34.4267 45.286C33.6674 44.5273 33.1048 43.595 32.7878 42.5699L32.4305 41.3799" stroke="#0D2065" stroke-width="1.5" stroke-linecap="round" stroke-linejoin="round"/>
<path d="M131.375 25.0393C133.631 25.0393 135.46 23.2104 135.46 20.9542C135.46 18.6981 133.631 16.8691 131.375 16.8691C129.119 16.8691 127.29 18.6981 127.29 20.9542C127.29 23.2104 129.119 25.0393 131.375 25.0393Z" fill="#F77ABD"/>
<ellipse cx="85.0776" cy="81.3223" rx="73.0776" ry="28.1417" fill="#2277F6"/>
<path d="M24.2548 40.472C25.5082 40.472 26.5243 39.6591 26.5243 38.6564C26.5243 37.6537 25.5082 36.8408 24.2548 36.8408C23.0014 36.8408 21.9854 37.6537 21.9854 38.6564C21.9854 39.6591 23.0014 40.472 24.2548 40.472Z" fill="#F77ABD"/>
<path d="M111.94 55.9043C139.008 59.9687 158.155 69.9938 158.155 81.717C158.155 97.0414 125.437 109.464 85.0776 109.464C44.718 109.464 12 97.0414 12 81.717C12 70.0774 30.8751 60.1118 57.6374 55.9921" stroke="#0D2065" stroke-width="1.5"/>
<path opacity="0.25" fill-rule="evenodd" clip-rule="evenodd" d="M41.957 104.018V140.329C55.7253 148.197 91.7951 159.212 125.928 140.329V104.018H41.957Z" fill="#2277F6"/>
<path d="M111.94 55.9043C139.008 59.9687 158.155 69.9938 158.155 81.717C158.155 97.0414 125.437 109.464 85.0776 109.464C44.718 109.464 12 97.0414 12 81.717C12 70.0774 30.8751 60.1118 57.6374 55.9921" stroke="#0D2065" stroke-width="1.5"/>
<path d="M43.3682 104.431C43.3682 104.016 43.0324 103.681 42.6182 103.681C42.204 103.681 41.8682 104.016 41.8682 104.431H43.3682ZM42.6182 146.313H41.8682C41.8682 146.505 41.9415 146.689 42.0731 146.828L42.6182 146.313ZM84.5006 157.75C84.9148 157.75 85.2506 157.415 85.2506 157C85.2506 156.586 84.9148 156.25 84.5006 156.25V157.75ZM41.8682 104.431V146.313H43.3682V104.431H41.8682ZM42.0731 146.828C43.8775 148.738 48.1245 151.46 55.0557 153.706C62.01 155.959 71.7179 157.75 84.5006 157.75V156.25C71.8568 156.25 62.3067 154.479 55.518 152.279C48.7062 150.072 44.7253 147.451 43.1633 145.798L42.0731 146.828Z" fill="#0D2065"/>
<path d="M125.345 104.431C125.345 104.016 125.681 103.681 126.095 103.681C126.509 103.681 126.845 104.016 126.845 104.431H125.345ZM126.095 146.313H126.845C126.845 146.505 126.771 146.689 126.64 146.828L126.095 146.313ZM84.2123 157.75C83.7981 157.75 83.4623 157.415 83.4623 157C83.4623 156.586 83.7981 156.25 84.2123 156.25V157.75ZM126.845 104.431V146.313H125.345V104.431H126.845ZM126.64 146.828C124.835 148.738 120.588 151.46 113.657 153.706C106.703 155.959 96.995 157.75 84.2123 157.75V156.25C96.8561 156.25 106.406 154.479 113.195 152.279C120.007 150.072 123.988 147.451 125.55 145.798L126.64 146.828Z" fill="#0D2065"/>
<path d="M42.8652 118.542C46.1589 119.345 50.6685 120.223 56.0598 120.991M125.475 118.542C103.74 124.064 80.2701 123.713 62.9439 121.849" stroke="#0D2065" stroke-width="1.5" stroke-linecap="round" stroke-linejoin="round"/>
<path d="M41.957 79.5068C56.1666 82.9321 92.7634 87.7274 125.474 79.5068" stroke="#0D2065" stroke-width="1.5" stroke-linecap="round" stroke-linejoin="round"/>
<path fill-rule="evenodd" clip-rule="evenodd" d="M113.674 81.7429C104.41 83.3443 94.5049 84.2112 84.2111 84.2112C74.3283 84.2112 64.8032 83.4122 55.8605 81.9312C55.7643 81.7295 55.6705 81.5266 55.5792 81.3226C54.0706 77.9513 53.2388 74.2602 53.2388 70.3912C53.2388 63.0567 56.2278 56.3617 61.1509 51.2725C58.8939 47.9514 56.8444 43.8906 55.2661 39.3732C50.6369 26.1229 51.8149 13.9621 57.8974 12.2113C63.9798 10.4605 72.6634 19.7827 77.2927 33.033C78.363 36.0966 79.1229 39.1019 79.5835 41.9338C81.2559 41.6823 82.9727 41.5515 84.7229 41.5515C86.3055 41.5515 87.8609 41.6585 89.3808 41.8649C89.8425 39.0532 90.5987 36.0717 91.6604 33.033C96.2897 19.7827 104.973 10.4605 111.056 12.2113C117.138 13.9621 118.316 26.1229 113.687 39.3732C112.156 43.7564 110.181 47.7098 108.003 50.9747C113.099 56.0991 116.207 62.9128 116.207 70.3912C116.207 74.2602 115.375 77.9513 113.867 81.3226C113.804 81.4632 113.739 81.6034 113.674 81.7429Z" fill="white"/>
<path d="M113.674 81.7429L113.802 82.4819L114.188 82.4153L114.354 82.0608L113.674 81.7429ZM55.8605 81.9312L55.1836 82.2542L55.3521 82.6072L55.738 82.6711L55.8605 81.9312ZM55.5792 81.3226L54.8946 81.6289H54.8946L55.5792 81.3226ZM61.1509 51.2725L61.6899 51.794L62.1141 51.3555L61.7712 50.851L61.1509 51.2725ZM55.2661 39.3732L55.9742 39.1258L55.2661 39.3732ZM57.8974 12.2113L58.1048 12.932L57.8974 12.2113ZM77.2927 33.033L76.5846 33.2803L77.2927 33.033ZM79.5835 41.9338L78.8432 42.0542L78.9622 42.7857L79.695 42.6755L79.5835 41.9338ZM89.3808 41.8649L89.2799 42.6081L90.0027 42.7063L90.1209 41.9864L89.3808 41.8649ZM91.6604 33.033L92.3684 33.2803L91.6604 33.033ZM111.056 12.2113L111.263 11.4906L111.056 12.2113ZM113.687 39.3732L114.395 39.6205L113.687 39.3732ZM108.003 50.9747L107.379 50.5585L107.038 51.0687L107.471 51.5036L108.003 50.9747ZM113.867 81.3226L114.551 81.6289V81.6289L113.867 81.3226ZM113.546 81.0039C104.326 82.5978 94.4631 83.4612 84.2111 83.4612V84.9612C94.5466 84.9612 104.495 84.0908 113.802 82.4819L113.546 81.0039ZM84.2111 83.4612C74.3684 83.4612 64.8843 82.6654 55.983 81.1912L55.738 82.6711C64.7221 84.1589 74.2882 84.9612 84.2111 84.9612V83.4612ZM56.5374 81.6082C56.4438 81.412 56.3526 81.2147 56.2637 81.0162L54.8946 81.6289C54.9884 81.8386 55.0847 82.047 55.1836 82.2542L56.5374 81.6082ZM56.2637 81.0162C54.7969 77.7383 53.9888 74.1514 53.9888 70.3912H52.4888C52.4888 74.3691 53.3442 78.1643 54.8946 81.6289L56.2637 81.0162ZM53.9888 70.3912C53.9888 63.2674 56.8906 56.7553 61.6899 51.794L60.6118 50.7511C55.565 55.9682 52.4888 62.8461 52.4888 70.3912H53.9888ZM61.7712 50.851C59.5537 47.5881 57.5326 43.5866 55.9742 39.1258L54.5581 39.6205C56.1561 44.1946 58.234 48.3147 60.5305 51.6941L61.7712 50.851ZM55.9742 39.1258C53.686 32.5764 52.8481 26.3344 53.3114 21.5522C53.7818 16.6953 55.5417 13.6698 58.1048 12.932L57.6899 11.4906C54.1705 12.5036 52.3002 16.4338 51.8183 21.4076C51.3293 26.4561 52.217 32.9197 54.5581 39.6205L55.9742 39.1258ZM58.1048 12.932C59.3986 12.5596 60.8887 12.7578 62.5188 13.5391C64.1509 14.3213 65.8779 15.6687 67.5912 17.5079C71.0166 21.1852 74.2969 26.7323 76.5846 33.2803L78.0007 32.7856C75.6591 26.0834 72.2831 20.3442 68.6887 16.4855C66.8921 14.5568 65.0185 13.0737 63.1671 12.1864C61.3136 11.2981 59.4374 10.9876 57.6899 11.4906L58.1048 12.932ZM76.5846 33.2803C77.6413 36.3047 78.39 39.2676 78.8432 42.0542L80.3237 41.8134C79.8558 38.9362 79.0847 35.8884 78.0007 32.7856L76.5846 33.2803ZM79.695 42.6755C81.3306 42.4295 83.0101 42.3015 84.7229 42.3015V40.8015C82.9353 40.8015 81.1812 40.9351 79.4719 41.1922L79.695 42.6755ZM84.7229 42.3015C86.2717 42.3015 87.7933 42.4062 89.2799 42.6081L89.4818 41.1218C87.9284 40.9107 86.3393 40.8015 84.7229 40.8015V42.3015ZM90.1209 41.9864C90.5752 39.2196 91.3204 36.2802 92.3684 33.2803L90.9524 32.7856C89.8771 35.8633 89.1098 38.8868 88.6408 41.7434L90.1209 41.9864ZM92.3684 33.2803C94.6561 26.7323 97.9365 21.1852 101.362 17.5079C103.075 15.6687 104.802 14.3213 106.434 13.5391C108.064 12.7578 109.554 12.5596 110.848 12.932L111.263 11.4906C109.516 10.9876 107.639 11.2981 105.786 12.1864C103.935 13.0737 102.061 14.5568 100.264 16.4855C96.67 20.3442 93.2939 26.0834 90.9524 32.7856L92.3684 33.2803ZM110.848 12.932C113.411 13.6698 115.171 16.6953 115.642 21.5522C116.105 26.3344 115.267 32.5764 112.979 39.1258L114.395 39.6205C116.736 32.9197 117.624 26.4561 117.135 21.4076C116.653 16.4338 114.783 12.5036 111.263 11.4906L110.848 12.932ZM112.979 39.1258C111.467 43.454 109.519 47.3499 107.379 50.5585L108.627 51.3909C110.842 48.0697 112.844 44.0589 114.395 39.6205L112.979 39.1258ZM107.471 51.5036C112.44 56.4999 115.457 63.1278 115.457 70.3912H116.957C116.957 62.6978 113.759 55.6984 108.534 50.4458L107.471 51.5036ZM115.457 70.3912C115.457 74.1514 114.649 77.7383 113.182 81.0162L114.551 81.6289C116.102 78.1643 116.957 74.3691 116.957 70.3912H115.457ZM113.182 81.0162C113.121 81.153 113.058 81.2893 112.995 81.425L114.354 82.0608C114.421 81.9174 114.486 81.7735 114.551 81.6289L113.182 81.0162Z" fill="#0D2065"/>
<path d="M93.7066 67.7061C93.6758 66.8834 93.8055 66.0628 94.088 65.2933C94.3704 64.5238 94.7998 63.8213 95.3504 63.228C95.9009 62.6346 96.5613 62.1626 97.292 61.8402C98.0227 61.5178 98.8087 61.3516 99.6028 61.3516C100.397 61.3516 101.183 61.5178 101.914 61.8402C102.644 62.1626 103.305 62.6346 103.855 63.228C104.406 63.8213 104.835 64.5238 105.118 65.2933C105.4 66.0628 105.53 66.8834 105.499 67.7061" stroke="#0D2065" stroke-width="1.5" stroke-linecap="round" stroke-linejoin="round"/>
<path d="M65.564 67.7061C65.5332 66.8834 65.663 66.0628 65.9454 65.2933C66.2279 64.5238 66.6572 63.8213 67.2078 63.228C67.7583 62.6346 68.4187 62.1626 69.1495 61.8402C69.8802 61.5178 70.6661 61.3516 71.4602 61.3516C72.2544 61.3516 73.0403 61.5178 73.771 61.8402C74.5017 62.1626 75.1622 62.6346 75.7127 63.228C76.2633 63.8213 76.6926 64.5238 76.9751 65.2933C77.2575 66.0628 77.3873 66.8834 77.3565 67.7061" stroke="#0D2065" stroke-width="1.5" stroke-linecap="round" stroke-linejoin="round"/>
</svg>
