<svg width="200" height="200" viewBox="0 0 200 200" fill="none" xmlns="http://www.w3.org/2000/svg">
<path d="M184.258 51.7707L156.438 178.446C156.113 179.939 155.497 181.353 154.625 182.608C153.754 183.862 152.644 184.933 151.359 185.758C150.074 186.583 148.64 187.147 147.137 187.417C145.635 187.688 144.094 187.659 142.603 187.333L54.9079 168.04C53.4175 167.71 52.0067 167.09 50.756 166.214C49.5054 165.338 48.4393 164.224 47.6188 162.935C46.7982 161.647 46.2392 160.209 45.9737 158.704C45.7081 157.2 45.7413 155.657 46.0712 154.165L73.8912 27.49C74.2184 26.0005 74.8356 24.5901 75.7077 23.3396C76.5798 22.0891 77.6895 21.0229 78.9735 20.2021C80.2576 19.3812 81.6906 18.8218 83.1907 18.5559C84.6909 18.2899 86.2286 18.3227 87.7161 18.6522L112.034 24.002C111.766 24.7447 111.548 25.5041 111.379 26.2753C110.697 31.3106 111.933 36.4181 114.84 40.5832C117.747 44.7483 122.113 47.6661 127.071 48.7567C132.028 49.8474 137.214 49.0311 141.598 46.4701C145.983 43.9091 149.244 39.7908 150.735 34.9335C150.905 34.1627 151.025 33.3816 151.093 32.5951L175.411 37.9449C176.899 38.2701 178.309 38.8858 179.559 39.7569C180.81 40.628 181.877 41.7373 182.698 43.0214C183.52 44.3055 184.081 45.7392 184.348 47.2405C184.616 48.7417 184.586 50.2812 184.258 51.7707Z" stroke="#0D2065" stroke-width="1.5" stroke-linecap="round" stroke-linejoin="round"/>
<path opacity="0.25" fill-rule="evenodd" clip-rule="evenodd" d="M156.982 176.479C147.568 178.072 137.737 177.921 127.894 175.755C85.5162 166.432 58.9721 123.313 68.6061 79.446C74.1141 54.3656 90.2556 34.4707 110.991 23.7726L87.727 18.6546C86.2382 18.3248 84.699 18.2914 83.1977 18.5565C81.6964 18.8216 80.2623 19.3799 78.9775 20.1994C77.6927 21.019 76.5824 22.0837 75.7101 23.3327C74.8378 24.5817 74.2205 25.9905 73.8938 27.4785L46.1019 154.026C45.7723 155.516 45.7397 157.057 46.0061 158.561C46.2725 160.064 46.8326 161.501 47.6544 162.788C48.4762 164.076 49.5437 165.189 50.7958 166.065C52.0479 166.94 53.4602 167.561 54.952 167.892L142.732 187.203C144.225 187.529 145.767 187.559 147.27 187.289C148.774 187.02 150.21 186.457 151.495 185.633C152.781 184.809 153.891 183.74 154.763 182.487C155.635 181.234 156.251 179.821 156.576 178.33L156.982 176.479Z" fill="#2277F6"/>
<path d="M116.405 134.292L99.6257 145.02" stroke="#0D2065" stroke-width="1.5" stroke-linecap="round" stroke-linejoin="round"/>
<path d="M103.213 136.327C104.775 136.671 106.319 135.684 106.662 134.124C107.005 132.563 106.016 131.02 104.454 130.676C102.892 130.332 101.348 131.319 101.005 132.879C100.663 134.44 101.651 135.983 103.213 136.327Z" stroke="#0D2065" stroke-width="1.5" stroke-linecap="round" stroke-linejoin="round"/>
<path d="M113.177 148.989C114.739 149.333 116.283 148.346 116.626 146.786C116.968 145.225 115.98 143.682 114.418 143.338C112.856 142.994 111.312 143.981 110.969 145.541C110.627 147.102 111.615 148.646 113.177 148.989Z" stroke="#0D2065" stroke-width="1.5" stroke-linecap="round" stroke-linejoin="round"/>
<path d="M59.6143 95.2988L63.8593 96.2327" stroke="#0D2065" stroke-width="1.5" stroke-linecap="round" stroke-linejoin="round"/>
<path d="M69.166 97.4004L73.411 98.3343" stroke="#0D2065" stroke-width="1.5" stroke-linecap="round" stroke-linejoin="round"/>
<path d="M78.7188 99.502L82.9638 100.436" stroke="#0D2065" stroke-width="1.5" stroke-linecap="round" stroke-linejoin="round"/>
<path d="M88.2705 101.604L92.5155 102.537" stroke="#0D2065" stroke-width="1.5" stroke-linecap="round" stroke-linejoin="round"/>
<path d="M97.8223 103.705L102.067 104.639" stroke="#0D2065" stroke-width="1.5" stroke-linecap="round" stroke-linejoin="round"/>
<path d="M107.374 105.807L111.619 106.741" stroke="#0D2065" stroke-width="1.5" stroke-linecap="round" stroke-linejoin="round"/>
<path d="M116.926 107.907L121.171 108.841" stroke="#0D2065" stroke-width="1.5" stroke-linecap="round" stroke-linejoin="round"/>
<path d="M126.478 110.009L130.723 110.943" stroke="#0D2065" stroke-width="1.5" stroke-linecap="round" stroke-linejoin="round"/>
<path d="M136.029 112.11L140.274 113.044" stroke="#0D2065" stroke-width="1.5" stroke-linecap="round" stroke-linejoin="round"/>
<path d="M145.582 114.212L149.827 115.146" stroke="#0D2065" stroke-width="1.5" stroke-linecap="round" stroke-linejoin="round"/>
<path d="M155.134 116.313L159.379 117.247" stroke="#0D2065" stroke-width="1.5" stroke-linecap="round" stroke-linejoin="round"/>
<path d="M164.686 118.414L168.931 119.348" stroke="#0D2065" stroke-width="1.5" stroke-linecap="round" stroke-linejoin="round"/>
<path d="M74.797 81.3589L58.4869 95.4165" stroke="#0D2065" stroke-width="1.5" stroke-linecap="round" stroke-linejoin="round"/>
<path d="M185.164 105.639L168.854 119.697" stroke="#0D2065" stroke-width="1.5" stroke-linecap="round" stroke-linejoin="round"/>
<path d="M128.442 92.0587C128.326 93.2432 127.96 94.3895 127.368 95.422C126.776 96.4546 125.972 97.3499 125.009 98.0491C124.045 98.7482 122.944 99.2353 121.778 99.4783C120.612 99.7212 119.408 99.7145 118.245 99.4585C117.081 99.2025 115.985 98.7032 115.028 97.9933C114.072 97.2834 113.276 96.3791 112.695 95.34C112.113 94.3009 111.758 93.1506 111.654 91.9649C111.549 90.7792 111.697 89.5849 112.088 88.4609L128.442 92.0587Z" fill="#0D2065"/>
<path d="M89.2945 82.8188C93.2693 83.6933 96.7422 83.2603 97.0516 81.8518C97.3609 80.4432 94.3895 78.5925 90.4147 77.7181C86.44 76.8436 82.967 77.2766 82.6577 78.6851C82.3483 80.0936 85.3198 81.9444 89.2945 82.8188Z" fill="#F77ABD"/>
<path d="M147.298 95.5796C151.273 96.454 154.746 96.021 155.055 94.6125C155.365 93.204 152.393 91.3533 148.419 90.4788C144.444 89.6044 140.971 90.0373 140.662 91.4459C140.352 92.8544 143.324 94.7051 147.298 95.5796Z" fill="#F77ABD"/>
<path d="M69.3457 45.9717L180.764 70.4836L179.278 77.2499C176.909 88.0385 166.243 94.8604 155.455 92.4872L83.1025 76.5697C72.3148 74.1964 65.4904 63.5266 67.8597 52.738L69.3457 45.9717Z" fill="#2277F6"/>
<path d="M15.4244 105.851C39.9729 80.3717 56.6635 77.7941 61.9402 79.6902L50.388 132.292L15.4244 105.851Z" fill="#2277F6" stroke="#0D2065" stroke-width="1.5" stroke-linecap="round" stroke-linejoin="round"/>
<path d="M70.3965 46.2031L179.713 70.2526L178.227 77.0189C175.857 87.8074 165.191 94.6294 154.404 92.2561L84.1533 76.8011C73.3656 74.4278 66.5411 63.758 68.9105 52.9694L70.3965 46.2031Z" stroke="#0D2065" stroke-width="1.5"/>
<path d="M30.9499 123.994L20.8403 137.694" stroke="#0D2065" stroke-width="1.5" stroke-linecap="round" stroke-linejoin="round"/>
<path d="M30.9499 140.151L20.8403 153.851" stroke="#0D2065" stroke-width="1.5" stroke-linecap="round" stroke-linejoin="round"/>
<path d="M16.9597 125.071L6.85002 138.771" stroke="#0D2065" stroke-width="1.5" stroke-linecap="round" stroke-linejoin="round"/>
<ellipse cx="96.7131" cy="66.0698" rx="6.99536" ry="7.00145" fill="white"/>
<ellipse cx="149.448" cy="77.9184" rx="6.99536" ry="7.00145" fill="white"/>
</svg>
