<svg width="20" height="20" viewBox="0 0 20 20" fill="none" xmlns="http://www.w3.org/2000/svg">
<path d="M3.57227 1H10.0008L19.0008 9.8769" stroke="#0D2065" stroke-linecap="round" stroke-linejoin="round"/>
<path d="M7.53914 3.53625H2.28571C1.94472 3.53625 1.6177 3.66986 1.37658 3.90768C1.13546 4.1455 1 4.46805 1 4.80438V9.98511C0.999924 10.1517 1.03312 10.3166 1.09768 10.4705C1.16224 10.6244 1.25691 10.7643 1.37629 10.8821L9.22857 18.6287C9.38069 18.7787 9.56854 18.8886 9.77492 18.9485C9.98129 19.0083 10.1996 19.0162 10.4098 18.9712C10.6201 18.9263 10.8155 18.8301 10.9783 18.6914C11.141 18.5527 11.2659 18.3759 11.3414 18.1772L12.5714 14.9494L15.8449 13.7379C16.0463 13.6634 16.2255 13.5403 16.3661 13.3797C16.5068 13.2192 16.6044 13.0264 16.6499 12.8191C16.6954 12.6117 16.6875 12.3964 16.6268 12.1928C16.5661 11.9893 16.4547 11.804 16.3026 11.654L8.44771 3.90739C8.20669 3.66982 7.8799 3.53633 7.53914 3.53625Z" stroke="#0D2065" stroke-linecap="round" stroke-linejoin="round"/>
<path d="M4.85658 7.02362C4.79301 7.02362 4.73087 7.04222 4.67801 7.07705C4.62515 7.11189 4.58395 7.1614 4.55962 7.21933C4.5353 7.27726 4.52893 7.34101 4.54133 7.4025C4.55373 7.464 4.58435 7.52049 4.6293 7.56483C4.67425 7.60917 4.73153 7.63936 4.79388 7.65159C4.85623 7.66383 4.92086 7.65755 4.97959 7.63355C5.03832 7.60956 5.08852 7.56892 5.12384 7.51679C5.15916 7.46465 5.17801 7.40336 5.17801 7.34065C5.17813 7.29899 5.16989 7.25771 5.15378 7.2192C5.13766 7.18069 5.11399 7.14569 5.08412 7.11623C5.05425 7.08677 5.01877 7.06342 4.97972 7.04753C4.94068 7.03163 4.89883 7.02351 4.85658 7.02362" stroke="#0D2065" stroke-linecap="round" stroke-linejoin="round"/>
</svg>
