<svg xmlns="http://www.w3.org/2000/svg" width="16" height="16" fill="none" viewBox="0 0 16 16">
    <path stroke="#2277F6" stroke-linecap="round" stroke-linejoin="round" d="M1 1h1.867v8.4H15"/>
    <path stroke="#2277F6" stroke-linecap="round" stroke-linejoin="round" d="M4.267 15c.773 0 1.4-.627 1.4-1.4 0-.773-.627-1.4-1.4-1.4-.774 0-1.4.627-1.4 1.4 0 .773.627 1.4 1.4 1.4zM12.667 15c.773 0 1.4-.627 1.4-1.4 0-.773-.627-1.4-1.4-1.4-.774 0-1.4.627-1.4 1.4 0 .773.626 1.4 1.4 1.4z"/>
    <path fill-rule="evenodd" stroke="#2277F6" stroke-linecap="round" stroke-linejoin="round" d="M14.404 1.577c-.908-.899-2.424-.719-3.137.345C10.553.857 9.037.68 8.13 1.577c-.795.787-.795 2.063 0 2.851l3.137 3.105 3.137-3.106c.795-.787.795-2.063 0-2.85z" clip-rule="evenodd"/>
</svg>
