<?xml version="1.0" encoding="utf-8"?>
<!-- Generator: Adobe Illustrator 27.2.0, SVG Export Plug-In . SVG Version: 6.00 Build 0)  -->
<svg version="1.1" id="Layer_1" xmlns="http://www.w3.org/2000/svg" xmlns:xlink="http://www.w3.org/1999/xlink" x="0px" y="0px"
	 viewBox="0 0 462.7 100" style="enable-background:new 0 0 462.7 100;" xml:space="preserve">
<style type="text/css">
	.st0{fill:#3B81C3;}
	.st1{fill:#FFFFFF;}
</style>
<path class="st0" d="M45.4,7.6c-9.5,0-18,6.1-20.9,15.1C18.3,24,13,27.8,10,33.2c-4.8,8.2-3.7,18.6,2.7,25.6
	c-2,5.9-1.3,12.4,1.9,17.7c4.7,8.3,14.3,12.5,23.6,10.5c4.1,4.7,10.1,7.3,16.3,7.3c9.5,0,18-6.1,20.9-15.1
	c6.1-1.3,11.4-5.1,14.5-10.5c4.8-8.2,3.7-18.6-2.7-25.6v0c2-5.9,1.3-12.4-1.9-17.8c-5.7-9.1-14.5-12.7-23.6-10.5
	C57.5,10.2,51.6,7.5,45.4,7.6z M45.4,13.2L45.4,13.2c3.8,0,7.5,1.4,10.4,3.8c-0.1,0.1-0.4,0.2-0.5,0.3l-17.3,10
	c-0.9,0.5-1.4,1.4-1.4,2.5v23.4l-7.5-4.3V29.5C29.1,20.5,36.3,13.2,45.4,13.2L45.4,13.2z M66.2,20c5.8,0,11.2,3.1,14.2,8.2
	c1.9,3.3,2.6,7.1,1.9,10.9c-0.1-0.1-0.4-0.2-0.5-0.3l-17.3-10c-0.9-0.5-2-0.5-2.9,0L41.3,40.5v-8.6l16.8-9.7
	C60.6,20.8,63.4,20,66.2,20L66.2,20z M23.4,28.9v20.6c0,1,0.5,1.9,1.4,2.5l20.3,11.7L37.6,68l-16.7-9.6c-7.8-4.5-10.4-14.5-5.9-22.2
	C16.8,32.8,19.8,30.2,23.4,28.9L23.4,28.9z M62.2,34l16.8,9.6c7.8,4.5,10.5,14.4,5.9,22.2l0,0C83,69.2,80,71.7,76.4,73V52.5
	c0-1-0.5-2-1.4-2.5L54.7,38.3L62.2,34z M49.9,41.1l8.5,4.9v9.9l-8.5,4.9l-8.5-4.9V46L49.9,41.1z M63.3,48.9l7.5,4.3v19.3
	c0,9-7.3,16.3-16.3,16.3v0c-3.8,0-7.5-1.3-10.4-3.8c0.1-0.1,0.4-0.2,0.5-0.3l17.3-10c0.9-0.5,1.4-1.4,1.4-2.5L63.3,48.9z M58.5,61.5
	v8.6l-16.8,9.6c-7.8,4.5-17.8,1.8-22.3-5.9h0c-1.9-3.3-2.6-7.1-1.9-10.9c0.1,0.1,0.4,0.2,0.5,0.3l17.3,10c0.9,0.5,2,0.5,2.9,0
	L58.5,61.5z"/>
<g>
	<path class="st1" d="M132.6,34.2c6.1,0,11.9,3,14.4,8.9l-6.6,2c-1.7-3-4.3-4.6-7.7-4.6c-6,0-9.8,5.1-9.8,10.9c0,5.9,3.7,11,10.1,11
		c4.3,0,8-2.4,8.6-7h-8.1v-5.7h15.2v3.5c0,9.2-6.6,15.5-16,15.5c-9.7,0-16.8-7.4-16.8-17.2C115.7,42,122.6,34.2,132.6,34.2z"/>
	<path class="st1" d="M153.3,35.2h10.5c7,0,12.8,3.2,12.8,11c0,7.2-6,10.9-12.9,10.9c-1.2,0-2.3-0.1-3.7-0.3v11h-6.8V35.2z
		 M160,51.1c1.2,0.2,2.3,0.3,3.4,0.3c3.5,0,6.2-1.4,6.2-5.2c0-3.7-2.6-5.2-6-5.2H160V51.1z"/>
	<path class="st1" d="M179.5,35.2h25.3v6.1h-9.2v26.6h-6.9V41.2h-9.2V35.2z"/>
	<path class="st1" d="M223.7,58.6c0.9,2.6,2.9,4,5.7,4c2.5,0,5-1.3,5-4.1c0-2.7-2.7-3.5-4.9-4l-1.5-0.3c-5.1-1.1-9.8-3.7-9.8-9.6
		c0-6.2,5.4-10.1,11.4-10.1c5.2,0,10,3,11.2,8.4l-6.3,1.4c-0.4-1.2-1-2.2-1.9-2.9c-0.9-0.6-2-1-3.2-1c-2.2,0-4.4,1.3-4.4,3.7
		c0,2.6,2.9,3.4,4.9,3.9l1.5,0.3c5.2,1.2,9.8,3.6,9.8,9.6c0,6.6-5.5,10.6-11.9,10.6c-5.4,0-10.7-3-12-8.6L223.7,58.6z"/>
	<path class="st1" d="M251.6,43.5v13.6c0,2.9,1.3,5.6,4.6,5.6c3.3,0,4.6-2.7,4.6-5.6V43.5h6.4V57c0,6.6-4.1,11.5-11.1,11.5
		c-6.8,0-10.9-4.7-10.9-11.5V43.5H251.6z"/>
	<path class="st1" d="M278.3,43.5l0.2,3.1c1.5-2.5,4-3.8,6.9-3.8c3.2,0,5.9,1.6,7.3,4.5c1.6-2.9,4.7-4.5,8-4.5c6,0,8.8,4.7,8.8,10.4
		v14.6h-6.4V54.1c0-2.7-1.1-5.4-4.2-5.4c-3,0-4.7,2.3-4.7,5.2v13.9h-6.4V54.1c0-2.7-1.1-5.4-4.2-5.4c-3,0-4.7,2.3-4.7,5.2v13.9h-6.4
		V43.5H278.3z"/>
	<path class="st1" d="M320.6,43.5l0.2,3.1c1.5-2.5,4-3.8,6.9-3.8c3.2,0,5.9,1.6,7.3,4.5c1.6-2.9,4.7-4.5,8-4.5c6,0,8.8,4.7,8.8,10.4
		v14.6h-6.4V54.1c0-2.7-1.1-5.4-4.2-5.4c-3,0-4.7,2.3-4.7,5.2v13.9h-6.4V54.1c0-2.7-1.1-5.4-4.2-5.4c-3,0-4.7,2.3-4.7,5.2v13.9h-6.4
		V43.5H320.6z"/>
	<path class="st1" d="M355.9,60.9c0-5.4,5.2-7.8,10-7.8c2,0,3.6,0.4,5.5,1.1v-1.4c0-2.7-1.6-4.6-4.4-4.6c-2,0-3.8,1-4.5,2.9
		l-5.8-1.1c1.1-4.6,5.9-7,10.4-7c6.1,0,10.5,3.9,10.5,10.3v14.7h-5.8l-0.2-2.9c-1.5,2.4-4.4,3.5-7.2,3.5
		C360.1,68.5,355.9,65.8,355.9,60.9z M366.1,63.5c2.8,0,5.3-1.9,5.3-4.9v-0.2c-0.7-0.3-1.4-0.5-2.2-0.7c-0.8-0.1-1.5-0.2-2.3-0.2
		c-2,0-4.7,0.7-4.7,3.1C362.2,62.7,364.3,63.5,366.1,63.5z"/>
	<path class="st1" d="M388.7,43.5l0.2,3.7c1.2-2.6,3.3-4,6.2-4c0.4,0,0.9,0,1.3,0.1c0.4,0.1,0.8,0.2,1.2,0.3l-0.7,6.3
		c-0.7-0.3-1.4-0.3-2.1-0.3c-3.9,0-5.5,2.6-5.5,6.3v11.9h-6.4V43.5H388.7z"/>
	<path class="st1" d="M400.6,37c0-2.1,1.6-3.7,3.7-3.7s3.7,1.5,3.7,3.7c0,2.1-1.6,3.7-3.7,3.7C402.2,40.6,400.6,39,400.6,37z
		 M401,43.5h6.4v24.3H401V43.5z"/>
	<path class="st1" d="M411.8,63.5l11.8-14.8h-11.5v-5.2h19.5v4.3l-11.8,14.8h12.6v5.2h-20.6V63.5z"/>
	<path class="st1" d="M447.4,42.8c7.4,0,11.9,5.5,11.9,12.8v1.6h-17.4c0.5,3.2,2.4,5.8,5.9,5.8c2.3,0,4-1.1,5.2-3l5.8,1.8
		c-1.7,4.4-6.5,6.6-11,6.6c-7.3,0-12.4-5.5-12.4-12.9C435.3,48.7,440.1,42.8,447.4,42.8z M441.9,53h10.7c-0.4-2.9-2.2-5.2-5.2-5.2
		C444.3,47.8,442.4,50.1,441.9,53z"/>
</g>
</svg>
