<?xml version="1.0" encoding="utf-8"?>
<!-- Generator: Adobe Illustrator 27.2.0, SVG Export Plug-In . SVG Version: 6.00 Build 0)  -->
<svg version="1.1" xmlns="http://www.w3.org/2000/svg" xmlns:xlink="http://www.w3.org/1999/xlink" x="0px" y="0px"
	 viewBox="0 0 100 100" style="enable-background:new 0 0 100 100;" xml:space="preserve">
<style type="text/css">
	.st0{fill:none;}
	.st1{fill:#72757A;}
</style>
<g id="Layer_1">
</g>
<g id="Layer_2">
	<g>
		<path class="st0" d="M71.3,14h-6.7C55.5,14,48,21.5,48,30.7v40.7C48,80.5,55.5,88,64.7,88h6.7C80.5,88,88,80.5,88,71.3V30.7
			C88,21.5,80.5,14,71.3,14z"/>
		<path class="st1" d="M79.7,4.9H22.3C12.8,4.9,5,12.6,5,22.2v57.3c0,9.6,7.8,17.3,17.3,17.3h57.3c9.6,0,17.3-7.8,17.3-17.3V22.2
			C97,12.6,89.2,4.9,79.7,4.9z M30.8,62.1c-0.9,0.9-2.4,0.9-3.3,0c-0.9-0.9-0.9-2.4,0-3.3l5.4-5.4H15c-1.3,0-2.4-1.1-2.4-2.4
			c0-1.3,1.1-2.4,2.4-2.4h17.8l-5.4-5.4c-0.9-0.9-0.9-2.4,0-3.3c0.9-0.9,2.4-0.9,3.3,0L41.9,51L30.8,62.1z M88,71.3
			C88,80.5,80.5,88,71.3,88h-6.7C55.5,88,48,80.5,48,71.3V30.7C48,21.5,55.5,14,64.7,14h6.7C80.5,14,88,21.5,88,30.7V71.3z"/>
	</g>
</g>
</svg>
