<svg width="37" height="37" viewBox="0 0 37 37" fill="none" xmlns="http://www.w3.org/2000/svg">
<path fill-rule="evenodd" clip-rule="evenodd" d="M0.53125 0.53125H16.3438V16.3438H0.53125V0.53125ZM6.28125 6.28125H10.5938V10.5938H6.28125V6.28125Z" fill="url(#paint0_linear_437_29)"/>
<path fill-rule="evenodd" clip-rule="evenodd" d="M0.53125 20.6562H16.3438V36.4688H0.53125V20.6562ZM6.28125 26.4062H10.5938V30.7188H6.28125V26.4062Z" fill="url(#paint1_linear_437_29)"/>
<path fill-rule="evenodd" clip-rule="evenodd" d="M20.6562 0.53125V16.3438H36.4688V0.53125H20.6562ZM30.7188 6.28125H26.4062V10.5938H30.7188V6.28125Z" fill="url(#paint2_linear_437_29)"/>
<path fill-rule="evenodd" clip-rule="evenodd" d="M20.6562 20.6562H36.4688V36.4688H20.6562V20.6562ZM26.4062 26.4062H30.7188V30.7188H26.4062V26.4062Z" fill="url(#paint3_linear_437_29)"/>
<defs>
<linearGradient id="paint0_linear_437_29" x1="18.5" y1="0.53125" x2="18.5" y2="36.4688" gradientUnits="userSpaceOnUse">
<stop stop-color="#97EB0E"/>
<stop offset="1" stop-color="#19B90B"/>
</linearGradient>
<linearGradient id="paint1_linear_437_29" x1="18.5" y1="0.53125" x2="18.5" y2="36.4688" gradientUnits="userSpaceOnUse">
<stop stop-color="#97EB0E"/>
<stop offset="1" stop-color="#19B90B"/>
</linearGradient>
<linearGradient id="paint2_linear_437_29" x1="18.5" y1="0.53125" x2="18.5" y2="36.4688" gradientUnits="userSpaceOnUse">
<stop stop-color="#97EB0E"/>
<stop offset="1" stop-color="#19B90B"/>
</linearGradient>
<linearGradient id="paint3_linear_437_29" x1="18.5" y1="0.53125" x2="18.5" y2="36.4688" gradientUnits="userSpaceOnUse">
<stop stop-color="#97EB0E"/>
<stop offset="1" stop-color="#19B90B"/>
</linearGradient>
</defs>
</svg>
