<?xml version="1.0" encoding="utf-8"?>
<!-- Generator: Adobe Illustrator 25.4.1, SVG Export Plug-In . SVG Version: 6.00 Build 0)  -->
<svg version="1.1" id="Layer_1" xmlns="http://www.w3.org/2000/svg" xmlns:xlink="http://www.w3.org/1999/xlink" x="0px" y="0px"
	 viewBox="0 0 19.2 20.4" style="enable-background:new 0 0 19.2 20.4;" xml:space="preserve">
<style type="text/css">
	.st0{fill:#FFBA00;}
	.st1{fill:#EA4335;}
	.st2{fill:#4285F4;}
	.st3{fill:#00AC47;}
	.st4{fill:#0066DA;}
	.st5{fill:#188038;}
</style>
<path class="st0" d="M13.2,0v4.9h-7v10.6h-6V1.6c0-0.9,0.9-1.6,2-1.6H13.2z"/>
<polygon class="st1" points="13.2,0 13.2,4.9 19.2,4.9 "/>
<rect x="13.2" y="4.9" class="st2" width="6" height="11.4"/>
<rect x="6.2" y="14.9" class="st3" width="7" height="5.5"/>
<path class="st4" d="M17.2,20.4h-4l0,0v-5.5l0,0h6l0,0v3.7C19.2,19.6,18.3,20.4,17.2,20.4z"/>
<path class="st5" d="M0.2,14.9h6l0,0v5.5l0,0h-4c-1.1,0-2-0.8-2-1.8V14.9L0.2,14.9z"/>
</svg>
