<?xml version="1.0" encoding="utf-8"?>
<!-- Generator: Adobe Illustrator 27.2.0, SVG Export Plug-In . SVG Version: 6.00 Build 0)  -->
<svg version="1.1" id="Layer_1" xmlns="http://www.w3.org/2000/svg" xmlns:xlink="http://www.w3.org/1999/xlink" x="0px" y="0px"
	 viewBox="0 0 139.6 79" style="enable-background:new 0 0 139.6 79;" xml:space="preserve">
<style type="text/css">
	.st0{fill:#EEF2F4;}
	.st1{fill:#949BAA;}
	.st2{fill:#D2D7E0;}
</style>
<path class="st0" d="M134.2,79H5.5c-3,0-5.5-2.5-5.5-5.5v-68C0,2.5,2.5,0,5.5,0h128.7c3,0,5.5,2.5,5.5,5.5v68
	C139.6,76.5,137.2,79,134.2,79z"/>
<path class="st1" d="M3.4,71.4V7.6C3.4,5,5.5,2.9,8,2.9h5.2c2.6,0,4.6,2.1,4.6,4.6v63.8c0,2.6-2.1,4.6-4.6,4.6H8
	C5.5,76.1,3.4,74,3.4,71.4z"/>
<path class="st2" d="M20.6,71.4V7.6c0-2.6,2.1-4.6,4.6-4.6h105.1c2.6,0,4.6,2.1,4.6,4.6v63.8c0,2.6-2.1,4.6-4.6,4.6H25.3
	C22.7,76.1,20.6,74,20.6,71.4z"/>
</svg>
