<?xml version="1.0" encoding="utf-8"?>
<!-- Generator: Adobe Illustrator 27.2.0, SVG Export Plug-In . SVG Version: 6.00 Build 0)  -->
<svg version="1.1" id="Layer_1" xmlns="http://www.w3.org/2000/svg" xmlns:xlink="http://www.w3.org/1999/xlink" x="0px" y="0px"
	 viewBox="0 0 139.6 79" style="enable-background:new 0 0 139.6 79;" xml:space="preserve">
<style type="text/css">
	.st0{fill:#EEF2F4;}
	.st1{fill:#949BAA;}
	.st2{fill:#D2D7E0;}
</style>
<path class="st0" d="M134.2,79H5.5c-3,0-5.5-2.5-5.5-5.5v-68C0,2.5,2.5,0,5.5,0h128.7c3,0,5.5,2.5,5.5,5.5v68
	C139.6,76.5,137.2,79,134.2,79z"/>
<path class="st1" d="M122.5,71.1V7.3c0-2.6,2.1-4.6,4.6-4.6h5.2c2.6,0,4.6,2.1,4.6,4.6v63.8c0,2.6-2.1,4.6-4.6,4.6h-5.2
	C124.5,75.8,122.5,73.7,122.5,71.1z"/>
<path class="st2" d="M4.4,71.4V7.6C4.4,5,6.5,2.9,9,2.9h105.1c2.6,0,4.6,2.1,4.6,4.6v63.8c0,2.6-2.1,4.6-4.6,4.6H9
	C6.5,76.1,4.4,74,4.4,71.4z"/>
</svg>
