<?xml version="1.0" encoding="utf-8"?>
<!-- Generator: Adobe Illustrator 27.2.0, SVG Export Plug-In . SVG Version: 6.00 Build 0)  -->
<svg version="1.1" id="Layer_1" xmlns="http://www.w3.org/2000/svg" xmlns:xlink="http://www.w3.org/1999/xlink" x="0px" y="0px"
	 viewBox="0 0 139.6 79" style="enable-background:new 0 0 139.6 79;" xml:space="preserve">
<style type="text/css">
	.st0{fill:#EEF2F4;}
	.st1{fill:#DCDFEA;}
	.st2{fill:#949BAA;}
</style>
<path class="st0" d="M134.2,79H5.5c-3,0-5.5-2.5-5.5-5.5v-68C0,2.5,2.5,0,5.5,0h128.7c3,0,5.5,2.5,5.5,5.5v68
	C139.6,76.5,137.2,79,134.2,79z"/>
<path class="st1" d="M78.7,22.7H13.3c-2.5,0-4.4-2-4.4-4.4v-5.6c0-2.5,2-4.4,4.4-4.4h65.4c2.5,0,4.4,2,4.4,4.4v5.6
	C83.2,20.7,81.2,22.7,78.7,22.7z"/>
<path class="st2" d="M126,42H74.5c-2.6,0-4.6-2.1-4.6-4.6v-5.2c0-2.6,2.1-4.6,4.6-4.6H126c2.6,0,4.6,2.1,4.6,4.6v5.2
	C130.6,39.9,128.5,42,126,42z"/>
</svg>
