<svg xmlns="http://www.w3.org/2000/svg" width="16" height="16" fill="none" viewBox="0 0 16 16">
    <path stroke="#0D2065" stroke-linecap="round" stroke-linejoin="round" d="M9.44 10.88h-.48c-.53 0-.96-.43-.96-.96v-2.4c0-.265-.215-.48-.48-.48h-.48"/>
    <path fill-rule="evenodd" stroke="#0D2065" stroke-linecap="round" stroke-linejoin="round" d="M7.76 4.64c-.133 0-.24.107-.24.24 0 .132.107.24.24.24S8 5.012 8 4.88c0-.133-.107-.24-.24-.24z" clip-rule="evenodd"/>
    <path stroke="#0D2065" stroke-linecap="round" stroke-linejoin="round" d="M8 15.2c3.976 0 7.2-3.224 7.2-7.2C15.2 4.023 11.977.8 8 .8 4.024.8.8 4.023.8 8c0 3.976 3.224 7.2 7.2 7.2z"/>
</svg>
