<svg xmlns="http://www.w3.org/2000/svg" width="147" height="32"><rect id="backgroundrect" width="100%" height="100%" x="0" y="0" fill="none" stroke="none" class="" style=""/>    
<g class="currentLayer" style=""><title>Layer 1</title><g fill="#FFF" fill-rule="evenodd">
        <g id="svg_2">
            <path fill-rule="nonzero" d="M97.92319115114212,23.404000011920928 v-1.038 c-0.7540000000000006,0.7500000000000006 -1.6980000000000008,0.911 -2.6470000000000002,1.06 c-0.10800000000000007,0.47200000000000025 -0.2,0.9490000000000005 -0.32700000000000035,1.411 c-0.30600000000000027,1.2 -0.8650000000000005,2.3200000000000003 -1.6400000000000001,3.2880000000000003 c-1.028,1.2610000000000001 -2.362,1.996 -3.943,2.327 c-0.92,0.19400000000000017 -1.836,0.3140000000000003 -2.77,0.12200000000000007 c-0.562,-0.11200000000000007 -1.086,-0.3700000000000003 -1.518,-0.7460000000000006 c-0.9500000000000005,-0.8260000000000005 -1.06,-2.118 -0.6890000000000008,-3.193 c0.3100000000000003,-0.8410000000000005 0.8700000000000006,-1.568 1.6030000000000002,-2.084 c0.47300000000000025,-0.35300000000000026 0.995,-0.6370000000000007 1.498,-0.9500000000000005 c0.05800000000000005,-0.035 0.12200000000000007,-0.061000000000000054 0.231,-0.1160000000000001 c-0.6630000000000008,-0.09600000000000014 -1.2930000000000001,-0.3490000000000004 -1.839,-0.7370000000000005 c-0.516,-0.38500000000000034 -0.9460000000000005,-0.8730000000000006 -1.263,-1.433 c-0.08400000000000009,0.1190000000000001 -0.17800000000000013,0.23 -0.28,0.3330000000000004 c-0.8190000000000005,0.7300000000000005 -1.771,1.294 -2.805,1.6600000000000001 c-1.1,0.3780000000000003 -2.306,0.30600000000000027 -3.353,-0.202 c-0.24900000000000014,-0.1170000000000001 -0.49400000000000027,-0.24200000000000013 -0.7380000000000005,-0.36900000000000027 c-0.14700000000000013,-0.0860000000000001 -0.3320000000000004,-0.07700000000000007 -0.46900000000000025,0.025000000000000026 c-1.959,1.2 -4.823,0.8260000000000005 -6.397,-0.8310000000000005 c-0.10600000000000002,-0.11300000000000007 -0.20500000000000004,-0.232 -0.3140000000000003,-0.35300000000000026 c-0.49000000000000027,0.23 -0.976,0.47000000000000025 -1.468,0.6880000000000008 c-1.298,0.6100000000000005 -2.66,1.074 -4.06,1.385 c-0.6350000000000007,0.15000000000000013 -1.291,0.19000000000000014 -1.94,0.1180000000000001 c-1.1600000000000001,-0.15800000000000014 -1.79,-0.8480000000000005 -1.864,-2.018 c-0.055000000000000035,-0.8830000000000007 0.11500000000000009,-1.7280000000000002 0.277,-2.58 c0.5770000000000005,-2.9859999999999998 1.147,-5.9719999999999995 1.7120000000000002,-8.956 c0.002000000000000002,-0.026000000000000034 0.002000000000000002,-0.05200000000000005 0,-0.07800000000000007 H61.62119115114211 c0.11300000000000007,-0.6440000000000007 0.22200000000000017,-1.2810000000000001 0.3420000000000004,-1.916 c0,-0.040000000000000036 0.11500000000000009,-0.0850000000000001 0.17700000000000013,-0.0850000000000001 h1.078 l0.41300000000000026,-2.577 h-1.417 l0.125,-2.117 l5.524,0.07200000000000002 l-0.7060000000000005,4.486 l3.67,0.07200000000000002 l-0.405,2.208 l-3.685,0.1 c-0.08300000000000009,0.4950000000000003 -0.1640000000000002,0.98 -0.24700000000000014,1.465 l-1.165,6.883 c-0.07,0.41600000000000026 -0.12200000000000007,0.8360000000000005 -0.17600000000000013,1.256 c-0.014000000000000009,0.1170000000000001 -0.014000000000000009,0.23600000000000004 0,0.35300000000000026 c0.047000000000000035,0.404 0.22200000000000017,0.53 0.6200000000000006,0.43000000000000027 c0.30500000000000027,-0.08000000000000007 0.6050000000000005,-0.18400000000000014 0.8960000000000007,-0.3100000000000003 c0.795,-0.35300000000000026 1.588,-0.7060000000000005 2.375,-1.059 c0.132,-0.05800000000000005 0.15900000000000014,-0.127 0.132,-0.275 c-0.56,-3.224 -0.024000000000000018,-6.219 2.017,-8.832 c1.1,-1.433 2.6820000000000004,-2.42 4.453,-2.778 c0.8370000000000005,-0.19300000000000017 1.71,-0.15700000000000014 2.528,0.10200000000000002 c0.17600000000000013,0.05200000000000005 0.3430000000000004,0.13 0.4950000000000003,0.233 c0.21800000000000014,0.15800000000000014 0.48200000000000026,0.24000000000000013 0.7510000000000006,0.23500000000000001 h3.987 c-0.07,0.39200000000000035 -0.136,0.7590000000000007 -0.203,1.124 c-0.6140000000000005,3.3200000000000003 -1.23,6.635 -1.85,9.946 c-0.07700000000000007,0.41600000000000026 -0.15700000000000014,0.8310000000000005 -0.23600000000000004,1.246 c-0.053000000000000054,0.28400000000000025 0.023000000000000034,0.3990000000000004 0.3090000000000003,0.38500000000000034 c0.267,-0.009000000000000015 0.533,-0.05000000000000005 0.79,-0.12000000000000002 c0.6130000000000005,-0.17700000000000013 1.216,-0.3940000000000004 1.816,-0.5920000000000005 c-0.0860000000000001,-0.4430000000000003 -0.19000000000000014,-0.8380000000000005 -0.23600000000000004,-1.235 c-0.268,-2.365 -0.06400000000000007,-4.664 1.04,-6.82 c0.5800000000000005,-1.137 1.399,-2.133 2.401,-2.923 c1.7200000000000002,-1.366 3.6420000000000003,-1.6550000000000002 5.728,-1.075 c0.020000000000000018,0.005000000000000005 0.040000000000000036,0.012000000000000009 0.06000000000000005,0.020000000000000018 c0.6320000000000007,0.30300000000000027 1.3,0.23600000000000004 1.968,0.2 c0.972,-0.055000000000000035 1.941,-0.09400000000000014 2.956,-0.14200000000000004 L95.79119115114212,20.942000011920925 c0.5980000000000005,0.08000000000000007 1.177,0.11200000000000007 1.742,-0.10400000000000002 c0.43000000000000027,-0.15000000000000013 0.7580000000000007,-0.5 0.8820000000000007,-0.9390000000000005 c0.14500000000000013,-0.529 0.26,-1.066 0.3430000000000004,-1.609 c0.35200000000000026,-2.142 0.6950000000000008,-4.286 1.04,-6.43 c0.0850000000000001,-0.53 0.17700000000000013,-1.06 0.257,-1.605 h-1.312 l0.14,-2.1630000000000003 h5.174 c0.41300000000000026,0 0.7530000000000006,0.129 0.8820000000000007,0.5840000000000005 c0.6000000000000005,-0.48700000000000027 1.32,-0.5700000000000005 2.028,-0.6500000000000007 c0.6720000000000008,-0.07500000000000002 1.352,-0.08400000000000009 2.028,-0.12100000000000002 c0.045000000000000054,0.001000000000000001 0.09000000000000012,0.00600000000000001 0.134,0.014000000000000009 l-0.22000000000000014,3.081 c-0.555,0.032000000000000035 -1.099,0.035 -1.6350000000000002,0.1 c-0.6830000000000008,0.08400000000000009 -1.362,0.21200000000000013 -2.042,0.3320000000000004 c-0.15000000000000013,0.03700000000000001 -0.29600000000000026,0.09000000000000012 -0.4360000000000003,0.16000000000000017 c-0.6360000000000007,0.233 -1.087,0.805 -1.166,1.478 c-0.552,3.395 -1.131,6.787 -1.701,10.18 c0,0.048000000000000036 -0.025000000000000026,0.09600000000000014 -0.040000000000000036,0.15200000000000014 l-3.966,0.002000000000000002 zm-4.12,-13.297 c-0.06800000000000009,-0.030000000000000034 -0.12300000000000007,-0.05800000000000005 -0.17700000000000013,-0.08100000000000007 c-1.206,-0.464 -2.314,-0.275 -3.316,0.52 c-0.6360000000000007,0.52 -1.1360000000000001,1.187 -1.46,1.9420000000000002 c-0.7500000000000006,1.665 -0.9490000000000005,3.526 -0.5700000000000005,5.313 c0.132,0.8260000000000005 0.47200000000000025,1.605 0.989,2.263 c0.6440000000000007,0.776 1.471,1.05 2.458,0.8660000000000005 c0.10600000000000002,-0.020000000000000018 0.15500000000000014,-0.056000000000000036 0.17600000000000013,-0.17600000000000013 c0.06400000000000007,-0.3980000000000004 0.138,-0.791 0.21000000000000013,-1.186 l1.336,-7.439 l0.35300000000000026,-2.022 zM73.33119115114212,17.01600001192093 c0.033000000000000036,0.29100000000000026 0.061000000000000054,0.7520000000000006 0.14300000000000004,1.2 c0.32400000000000034,1.7650000000000001 1.9,2.848 3.598,2.495 c0.14,-0.010000000000000009 0.252,-0.125 0.256,-0.266 c0.28,-1.7650000000000001 0.5750000000000005,-3.52 0.8640000000000005,-5.277 l0.7300000000000005,-4.442 c0.01700000000000002,-0.08000000000000007 0.002000000000000002,-0.16300000000000017 -0.04300000000000005,-0.23 c-0.35300000000000026,-0.3380000000000004 -0.7540000000000006,-0.6020000000000005 -1.2650000000000001,-0.6020000000000005 c-0.6340000000000007,-0.010000000000000009 -1.251,0.202 -1.746,0.5980000000000005 c-0.43000000000000027,0.3450000000000004 -0.797,0.7630000000000007 -1.083,1.235 c-0.9620000000000005,1.5670000000000002 -1.3800000000000001,3.295 -1.454,5.289 zm17.87,7 c-1.397,0.5780000000000005 -2.449,1.412 -2.862,2.873 c-0.05900000000000005,0.24000000000000013 -0.07400000000000002,0.48700000000000027 -0.04400000000000005,0.7310000000000005 c0.05000000000000005,0.506 0.4380000000000003,0.775 0.9400000000000005,0.7060000000000005 c0.32800000000000035,-0.040000000000000036 0.6230000000000006,-0.21400000000000013 0.8140000000000005,-0.48200000000000026 c0.15300000000000014,-0.21000000000000013 0.28700000000000025,-0.4340000000000003 0.4,-0.6690000000000008 c0.29000000000000026,-0.6650000000000008 0.49000000000000027,-1.367 0.5940000000000005,-2.086 c0.06500000000000007,-0.3440000000000004 0.11100000000000007,-0.6830000000000008 0.1660000000000002,-1.073 h-0.00700000000000001 zm-40.693,-1.1400000000000001 l-1.267,7.589 l-4.117,-0.14100000000000001 l2.569,-15.802 c-0.5790000000000005,0.2260000000000002 -1.131,0.4340000000000003 -1.6750000000000007,0.6590000000000008 c-0.05800000000000005,0.024000000000000018 -0.09500000000000014,0.14600000000000013 -0.10700000000000007,0.2270000000000002 c-0.15200000000000014,1.163 -0.48600000000000027,2.295 -0.99,3.353 c-0.937,1.924 -2.3120000000000003,3.443 -4.255,4.378 c-1.7400000000000002,0.8390000000000005 -3.496,0.8700000000000006 -5.21,-0.11000000000000007 c-0.6970000000000008,-0.41000000000000025 -1.2930000000000001,-0.97 -1.747,-1.6380000000000003 c-0.03700000000000001,-0.05200000000000005 -0.07200000000000002,-0.10500000000000002 -0.10900000000000007,-0.15600000000000014 c0,-0.010000000000000009 -0.023000000000000034,-0.014000000000000009 -0.04600000000000006,-0.026000000000000034 c-0.16200000000000017,0.125 -0.32600000000000035,0.257 -0.4960000000000003,0.3810000000000003 c-1.201,0.8820000000000007 -2.49,1.576 -3.958,1.8920000000000003 c-0.4950000000000003,0.12000000000000002 -1.01,0.136 -1.512,0.047000000000000035 c-0.9550000000000005,-0.19200000000000017 -1.54,-0.8400000000000005 -1.723,-1.875 c-0.1160000000000001,-0.77 -0.09300000000000014,-1.554 0.06700000000000009,-2.316 c0.463,-2.552 0.937,-5.102 1.403,-7.6530000000000005 c0.040000000000000036,-0.21500000000000014 0.05700000000000004,-0.4330000000000003 0.05200000000000005,-0.6510000000000007 c-0.011000000000000015,-0.32200000000000034 -0.17700000000000013,-0.53 -0.48800000000000027,-0.53 c-0.49000000000000027,0 -0.979,0.06400000000000007 -1.47,0.10600000000000002 c-0.09000000000000012,0.014000000000000009 -0.18000000000000013,0.03400000000000004 -0.268,0.05800000000000005 c-0.7340000000000005,0.11000000000000007 -1.31,0.6890000000000008 -1.412,1.424 c-0.21400000000000013,1.1360000000000001 -0.41100000000000025,2.274 -0.5920000000000005,3.417 c-0.30200000000000027,1.915 -0.5860000000000005,3.833 -0.8830000000000007,5.751 c-0.08000000000000007,0.53 -0.15200000000000014,1.046 -0.23,1.57 c-0.010000000000000009,0.07600000000000007 -0.026000000000000034,0.15200000000000014 -0.04200000000000004,0.23700000000000004 h-4.268 l3.374,-20.082 h-1.476 c0.03700000000000001,-0.3960000000000004 0.06700000000000009,-0.7600000000000007 0.10600000000000002,-1.123 c0.032000000000000035,-0.30100000000000027 0.07,-0.6030000000000005 0.12000000000000002,-0.901 c0.023000000000000034,-0.07 0.08000000000000007,-0.12400000000000007 0.15000000000000013,-0.14300000000000004 C21.82319115114211,0.800000011920929 23.638191151142124,0.800000011920929 25.452191151142117,0.800000011920929 c0,0 0.012000000000000009,0 0.04200000000000004,0.026000000000000034 l-1.059,7.358 c0.17700000000000013,-0.045000000000000054 0.3390000000000004,-0.07800000000000007 0.49300000000000027,-0.1190000000000001 c1.286,-0.35300000000000026 2.587,-0.5860000000000005 3.928,-0.48700000000000027 c0.3380000000000004,0.020000000000000018 0.6740000000000008,0.06000000000000005 1.007,0.1170000000000001 c0.994,0.17600000000000013 1.428,0.6700000000000008 1.425,1.6830000000000007 c-0.004000000000000004,0.812 -0.05100000000000005,1.622 -0.14200000000000004,2.428 c-0.30000000000000027,2.722 -0.81,5.41 -1.362,8.09 c-0.020000000000000018,0.0890000000000001 -0.033000000000000036,0.18000000000000013 -0.035,0.272 c-0.018000000000000016,0.10800000000000007 0.015000000000000015,0.21900000000000014 0.09000000000000012,0.29900000000000027 c0.07500000000000002,0.08000000000000007 0.18300000000000013,0.12000000000000002 0.29300000000000026,0.11000000000000007 c0.24600000000000014,0.008000000000000009 0.49100000000000027,-0.027000000000000034 0.7250000000000005,-0.10600000000000002 c0.6320000000000007,-0.257 1.248,-0.552 1.867,-0.8420000000000005 c0.055000000000000035,-0.040000000000000036 0.08400000000000009,-0.10800000000000007 0.07800000000000007,-0.17600000000000013 c-0.6000000000000005,-2.098 -0.3360000000000004,-4.15 0.35300000000000026,-6.177 c0.467,-1.3900000000000001 1.133,-2.677 2.168,-3.737 c1.278,-1.308 2.8520000000000003,-1.9540000000000002 4.666,-2.056 c1.319,-0.07400000000000002 2.54,0.17600000000000013 3.6100000000000003,0.997 c1.072,0.8200000000000005 1.737,1.8920000000000003 2.152,3.146 c0.08300000000000009,0.255 0.134,0.52 0.21700000000000014,0.773 c0.030000000000000034,0.07800000000000007 0.09600000000000014,0.137 0.17700000000000013,0.16000000000000017 c0.15400000000000014,0.014000000000000009 0.3100000000000003,0.004000000000000004 0.46,-0.030000000000000034 c0.6110000000000005,-0.135 1.1680000000000001,-0.44800000000000034 1.6,-0.8990000000000007 c0.14600000000000013,-0.15700000000000014 0.265,-0.3350000000000004 0.35400000000000026,-0.53 c0.21000000000000013,-0.39000000000000035 0.11400000000000009,-0.8740000000000006 -0.23,-1.154 c-0.266,-0.202 -0.544,-0.38600000000000034 -0.8340000000000005,-0.552 c0.10700000000000007,-0.402 0.22200000000000017,-0.8500000000000005 0.35300000000000026,-1.295 c0.010000000000000009,-0.03700000000000001 0.11200000000000007,-0.06500000000000007 0.17600000000000013,-0.06700000000000009 c1.355,-0.032000000000000035 2.709,-0.07400000000000002 4.059,-0.07800000000000007 c0.781,-0.015000000000000015 1.56,-0.09300000000000014 2.33,-0.233 c1.224,-0.2 2.424,-0.1 3.529,0.53 c1.126,0.6840000000000008 1.7930000000000001,1.725 2.191,2.96 c0.39200000000000035,1.28 0.505,2.63 0.3320000000000004,3.957 c-0.18400000000000014,1.8900000000000001 -0.8270000000000005,3.708 -1.872,5.2940000000000005 c-0.785,1.18 -1.7650000000000001,2.153 -3.085,2.72 c-1.232,0.518 -2.596,0.6340000000000007 -3.898,0.3320000000000004 c-0.43000000000000027,-0.08000000000000007 -0.8190000000000005,-0.30400000000000027 -1.101,-0.6380000000000007 zm-13.79,-6.045 c-0.010000000000000009,0.8250000000000005 0.07300000000000002,1.6500000000000008 0.25,2.456 c0.0880000000000001,0.502 0.28500000000000025,0.978 0.5760000000000005,1.3960000000000001 c0.13,0.20400000000000001 0.3380000000000004,0.3450000000000004 0.5750000000000005,0.39200000000000035 c0.23700000000000004,0.04600000000000006 0.48300000000000026,-0.00700000000000001 0.6800000000000008,-0.14700000000000013 c0.18000000000000013,-0.09900000000000014 0.3400000000000004,-0.2280000000000002 0.47500000000000026,-0.38300000000000034 c0.27,-0.32400000000000034 0.515,-0.6690000000000008 0.7320000000000005,-1.03 c0.467,-0.8470000000000005 0.8200000000000005,-1.7520000000000002 1.046,-2.6910000000000007 c0.42700000000000027,-1.6380000000000003 0.6520000000000007,-3.293 0.406,-4.984 c-0.06700000000000009,-0.548 -0.24400000000000013,-1.077 -0.52,-1.5550000000000002 c-0.28400000000000025,-0.47300000000000025 -0.7060000000000005,-0.5960000000000005 -1.193,-0.35300000000000026 c-0.17200000000000001,0.08200000000000009 -0.33100000000000035,0.18900000000000014 -0.47100000000000025,0.3180000000000003 c-0.264,0.24400000000000013 -0.507,0.51 -0.7260000000000005,0.794 c-1.245,1.6670000000000007 -1.8900000000000001,3.707 -1.83,5.787 zm19.954,-3.083 c0,-1.015 -0.18900000000000014,-1.8850000000000002 -0.56,-2.533 c-0.39300000000000035,-0.6900000000000008 -0.9680000000000005,-1.133 -1.775,-1.154 c-0.40800000000000025,-0.010000000000000009 -0.8170000000000005,0.10600000000000002 -1.235,0.1640000000000002 c-0.17700000000000013,0.025000000000000026 -0.233,0.127 -0.261,0.29500000000000026 c-0.4420000000000003,2.5540000000000003 -0.8870000000000007,5.108 -1.336,7.662 c-0.10300000000000002,0.5830000000000005 -0.20800000000000013,1.165 -0.3070000000000003,1.75 c-0.11000000000000007,0.6500000000000007 0.3120000000000003,1.058 0.9500000000000005,0.8820000000000007 c0.258,-0.07200000000000002 0.505,-0.17800000000000013 0.7350000000000005,-0.3150000000000003 c0.7260000000000005,-0.4400000000000003 1.362,-1.014 1.872,-1.6920000000000006 c1.183,-1.48 1.9100000000000001,-3.136 1.917,-5.06 zm-39.373,-7.83 c-0.529,-0.19400000000000017 -1.02,-0.3940000000000004 -1.526,-0.56 c-1.5350000000000001,-0.527 -3.124,-0.8850000000000007 -4.736,-1.067 c-0.6470000000000007,-0.0880000000000001 -1.303,-0.06700000000000009 -1.9420000000000002,0.06300000000000007 c-0.11000000000000007,0.025000000000000026 -0.21700000000000014,0.05800000000000005 -0.32300000000000034,0.09900000000000014 c-0.5780000000000005,0.23 -0.811,0.6720000000000008 -0.6670000000000008,1.288 c0.12400000000000007,0.51 0.36300000000000027,0.984 0.6970000000000008,1.387 c1.504,1.848 3.018,3.692 4.529,5.545 c0.9680000000000005,1.195 1.94,2.391 2.8810000000000002,3.603 c0.515,0.6400000000000007 0.911,1.366 1.169,2.145 c0.38400000000000034,1.224 0.09000000000000012,2.267 -0.8580000000000005,3.125 c-0.808,0.7300000000000005 -1.788,1.145 -2.824,1.447 c-1.9260000000000002,0.543 -3.935,0.7340000000000005 -5.929,0.5650000000000005 c-1.328,-0.07500000000000002 -2.637,-0.35000000000000026 -3.882,-0.8170000000000005 c-0.6660000000000008,-0.24000000000000013 -1.282,-0.6000000000000005 -1.82,-1.06 c-0.8300000000000005,-0.7060000000000005 -1.295,-1.75 -1.267,-2.839 c0.014000000000000009,-0.8660000000000005 0.40800000000000025,-1.588 0.97,-2.22 c0.8660000000000005,-0.974 1.963,-1.618 3.138,-2.142 c1.01,-0.457 2.072,-0.788 3.1630000000000003,-0.985 c0.053000000000000054,-0.009000000000000015 0.10400000000000002,-0.026000000000000034 0.1660000000000002,-0.04200000000000004 c-0.41000000000000025,-0.43000000000000027 -0.8160000000000005,-0.8420000000000005 -1.202,-1.27 c-1.27,-1.412 -2.47,-2.865 -3.415,-4.517 c-0.3720000000000003,-0.6500000000000007 -0.7360000000000005,-1.32 -0.797,-2.077 c-0.09700000000000014,-1.194 0.1180000000000001,-2.108 1.2930000000000001,-2.839 c0.77,-0.47600000000000026 1.629,-0.7060000000000005 2.51,-0.8470000000000005 c1.78,-0.29700000000000026 3.5700000000000003,-0.268 5.362,-0.14800000000000013 c1.6900000000000008,0.11000000000000007 3.37,0.33000000000000035 5.032,0.6580000000000008 c0.41300000000000026,0.08100000000000007 0.3440000000000004,-0.012000000000000009 0.3370000000000004,0.42000000000000026 c-0.014000000000000009,1.022 -0.040000000000000036,2.045 -0.05900000000000005,3.085 zM10.15519115114212,21.30900001192093 c0.9650000000000005,0.011000000000000015 1.486,-0.0880000000000001 1.855,-0.28700000000000025 c0.42600000000000027,-0.1970000000000002 0.6620000000000008,-0.6600000000000008 0.5720000000000005,-1.12 c-0.1,-0.54 -0.3440000000000004,-1.04 -0.7060000000000005,-1.451 c-0.7540000000000006,-0.9620000000000005 -1.544,-1.903 -2.3280000000000003,-2.847 c-0.06400000000000007,-0.03800000000000001 -0.14200000000000004,-0.04200000000000004 -0.21000000000000013,-0.010000000000000009 c-0.6780000000000008,0.402 -1.362,0.795 -2.02,1.235 c-0.41800000000000026,0.272 -0.7570000000000007,0.6470000000000007 -0.987,1.089 c-0.36500000000000027,0.6230000000000006 -0.30200000000000027,1.408 0.15900000000000014,1.964 c0.32900000000000035,0.41900000000000026 0.77,0.7350000000000005 1.274,0.91 c0.7640000000000007,0.30000000000000027 1.572,0.47500000000000026 2.391,0.517 z" id="svg_3"/>
            <path d="M143.53519115114213,7.800000011920929 c1.105,0 2,0.8950000000000007 2,2 c0,0.08300000000000009 -0.005000000000000005,0.1660000000000002 -0.015000000000000015,0.24800000000000014 l-1.5,12 c-0.125,1 -0.976,1.7520000000000002 -1.9849999999999999,1.7520000000000002 h-24.968 c-1.105,0 -2,-0.8950000000000007 -2,-2 c0,-0.08300000000000009 0.005000000000000005,-0.1660000000000002 0.015000000000000015,-0.24800000000000014 l1.5,-12 c0.125,-1 0.976,-1.7520000000000002 1.9849999999999999,-1.7520000000000002 h24.968 zm-4.36,4.5 c-1.472,0 -2.573,0.8450000000000005 -2.526,2.122 c0.04300000000000005,1.1600000000000001 0.991,1.521 1.8860000000000001,1.808 c0.6940000000000008,0.22000000000000014 1.3170000000000002,0.3990000000000004 1.339,0.99 c0.01700000000000002,0.465 -0.42000000000000026,0.8640000000000005 -1.087,0.8640000000000005 c-0.7430000000000005,0 -1.153,-0.41300000000000026 -1.197,-1.099 l-1.584,0.263 c0.029000000000000026,1.296 1.213,2.052 2.732,2.052 c1.57,0 2.7430000000000003,-0.8260000000000005 2.692,-2.211 c-0.04600000000000006,-1.244 -1.123,-1.6390000000000002 -2.055,-1.92 c-0.6660000000000008,-0.202 -1.198,-0.35700000000000026 -1.217,-0.8780000000000006 c-0.01700000000000002,-0.44600000000000034 0.47400000000000025,-0.775 1.123,-0.775 c0.5730000000000005,0 1.029,0.24000000000000013 1.054,0.906 L141.80119115114212,14.160000011920928 c-0.09100000000000014,-1.324 -1.3800000000000001,-1.859 -2.6260000000000003,-1.859 zm-7.359,0.09400000000000014 h-1.5 l-0.6100000000000005,4.357 c-0.030000000000000034,0.19200000000000017 -0.04200000000000004,0.38500000000000034 -0.035,0.558 c0.05000000000000005,1.357 1.084,1.991 2.475,1.991 c1.463,0 2.706,-0.6950000000000008 2.957,-2.446 l0.6250000000000006,-4.46 h-1.505 l-0.5800000000000005,4.155 c-0.15000000000000013,1.014 -0.78,1.427 -1.498,1.427 c-0.532,0 -0.92,-0.22000000000000014 -0.9450000000000005,-0.8920000000000007 c-0.005000000000000005,-0.127 0.008000000000000009,-0.277 0.030000000000000034,-0.4370000000000003 l0.5860000000000005,-4.253 zm-9.444,0 h-2.619 L118.80119115114212,19.206000011920928 h1.504 l0.3350000000000004,-2.408 h1.368 c1.7770000000000001,0 2.565,-1.179 2.519,-2.432 c-0.04200000000000004,-1.15 -0.7600000000000007,-1.972 -2.1550000000000002,-1.972 zm5.025,0 h-1.504 l-0.9520000000000005,6.812 h3.615 l0.18100000000000013,-1.324 h-2.092 l0.7520000000000006,-5.488 zm-5.196,1.249 c0.6440000000000007,0 0.8970000000000007,0.35200000000000026 0.915,0.8300000000000005 c0.01700000000000002,0.46 -0.21500000000000014,1.066 -1.282,1.066 h-1.02 l0.26,-1.8960000000000008 z" id="svg_4"/>
        </g>
    </g></g></svg>