<svg xmlns="http://www.w3.org/2000/svg" width="16" height="16" fill="none" viewBox="0 0 16 16">
    <path fill-rule="evenodd" stroke="#4A5FAC" stroke-linecap="round" stroke-linejoin="round" d="M12.95 3.05c2.733 2.734 2.733 7.166 0 9.9-2.734 2.733-7.166 2.733-9.9 0-2.733-2.734-2.733-7.166 0-9.9 2.734-2.733 7.166-2.733 9.9 0z" clip-rule="evenodd"/>
    <path fill-rule="evenodd" stroke="#4A5FAC" stroke-linecap="round" stroke-linejoin="round" d="M8.43 4.307l.936 2.173h1.824c.246-.009.454.184.463.43.005.134-.05.262-.15.35L9.922 8.67l.877 2.017v0c.101.244-.014.524-.258.625-.137.058-.293.048-.422-.027L8 10.091l-2.118 1.194v0c-.228.133-.52.057-.654-.171-.076-.13-.086-.288-.028-.427l.878-2.016-1.582-1.409v0c-.185-.164-.203-.446-.039-.631.089-.1.218-.156.352-.151h1.826l.938-2.173v0c.128-.237.424-.324.66-.196.083.045.152.113.197.196h0z" clip-rule="evenodd"/>
</svg>
