<svg xmlns="http://www.w3.org/2000/svg" width="24" height="25" fill="none" viewBox="0 0 24 25">
    <g stroke="#0D2065" stroke-linejoin="round" clip-path="url(#clip0)">
        <path stroke-miterlimit="10" d="M1.2 12.5c0 2.136.634 4.224 1.82 6 1.187 1.776 2.874 3.16 4.847 3.978 1.974.817 4.145 1.031 6.24.614 2.095-.416 4.02-1.445 5.53-2.955 1.51-1.51 2.539-3.435 2.956-5.53.416-2.095.203-4.267-.615-6.24-.817-1.973-2.202-3.66-3.978-4.847-1.776-1.187-3.864-1.82-6-1.82-2.086.013-4.125.622-5.877 1.755L5.4 4.1"/>
        <path stroke-linecap="round" stroke-miterlimit="10" d="M5.772 1.13l-.945 3.15 2.825.752"/>
        <path stroke-linecap="round" d="M9.6 14.75c0 .445.133.88.38 1.25s.598.658 1.01.829c.41.17.863.215 1.3.128.436-.087.837-.301 1.152-.616.314-.315.528-.716.615-1.152.087-.437.043-.889-.128-1.3-.17-.411-.458-.763-.828-1.01-.37-.247-.805-.379-1.25-.379-.445 0-.88-.132-1.25-.38-.37-.246-.659-.598-.83-1.009-.17-.411-.214-.864-.127-1.3.087-.436.3-.837.616-1.152.314-.315.715-.529 1.152-.616.436-.087.888-.042 1.3.128.41.17.762.459 1.01.829.247.37.379.805.379 1.25M11.85 6.5V8M11.85 17v1.5"/>
    </g>
    <defs>
        <clipPath id="clip0">
            <path fill="#fff" d="M0 0H24V24H0z" transform="translate(0 .5)"/>
        </clipPath>
    </defs>
</svg>
