<svg width="20" height="20" viewBox="0 0 20 20" fill="none" xmlns="http://www.w3.org/2000/svg">
<path d="M1 10C1 11.78 1.52784 13.5201 2.51677 15.0001C3.50571 16.4802 4.91131 17.6337 6.55585 18.3149C8.20038 18.9961 10.01 19.1743 11.7558 18.8271C13.5016 18.4798 15.1053 17.6226 16.364 16.364C17.6226 15.1053 18.4798 13.5016 18.8271 11.7558C19.1743 10.01 18.9961 8.20038 18.3149 6.55585C17.6337 4.91131 16.4802 3.50571 15.0001 2.51677C13.5201 1.52784 11.78 1 10 1C8.26147 1.01073 6.56224 1.51825 5.10259 2.46274L4.5 3" stroke="#0D2065" stroke-miterlimit="10" stroke-linejoin="round"/>
<path d="M5 1L4.42137 2.92819L6.15064 3.38814" stroke="#0D2065" stroke-miterlimit="10" stroke-linecap="round" stroke-linejoin="round"/>
<circle cx="10" cy="10" r="7" fill="#0D2065"/>
<path d="M8 11.875C8 12.2458 8.10997 12.6084 8.316 12.9167C8.52202 13.225 8.81486 13.4654 9.15747 13.6073C9.50008 13.7492 9.87708 13.7863 10.2408 13.714C10.6045 13.6416 10.9386 13.463 11.2008 13.2008C11.463 12.9386 11.6416 12.6045 11.714 12.2408C11.7863 11.8771 11.7492 11.5001 11.6073 11.1575C11.4654 10.8149 11.225 10.522 10.9167 10.316C10.6084 10.11 10.2458 10 9.875 10C9.50416 10 9.14165 9.89003 8.83331 9.68401C8.52496 9.47798 8.28464 9.18514 8.14273 8.84253C8.00081 8.49992 7.96368 8.12292 8.03603 7.75921C8.10838 7.39549 8.28695 7.0614 8.54918 6.79918C8.8114 6.53695 9.14549 6.35838 9.50921 6.28603C9.87292 6.21368 10.2499 6.25081 10.5925 6.39273C10.9351 6.53464 11.228 6.77496 11.434 7.08331C11.64 7.39165 11.75 7.75416 11.75 8.125" stroke="white" stroke-linecap="round" stroke-linejoin="round"/>
<path d="M9.875 5V6.25" stroke="white" stroke-linecap="round" stroke-linejoin="round"/>
<path d="M9.875 13.75V15" stroke="white" stroke-linecap="round" stroke-linejoin="round"/>
</svg>
