<svg xmlns="http://www.w3.org/2000/svg" width="24" height="24" fill="none" viewBox="0 0 24 24">
    <path stroke="#0D2065" stroke-linecap="round" stroke-linejoin="round" d="M8.94 19.439v0c-.586.586-1.536.586-2.121 0l-5.38-5.378v0c-.585-.586-.586-1.535 0-2.121v-.001l10.5-10.5v0c.282-.281.664-.439 1.062-.439h5.378v0c.828 0 1.5.672 1.5 1.5v5.379c0 .397-.158.779-.44 1.06"/>
    <path fill-rule="evenodd" stroke="#0D2065" stroke-linecap="round" stroke-linejoin="round" d="M16.129 4.375c-.207 0-.375.168-.375.375s.168.375.375.375.375-.168.375-.375-.168-.375-.375-.375zM21.122 13.257c2.343 2.344 2.343 6.143 0 8.486-2.344 2.343-6.143 2.343-8.486 0-2.343-2.343-2.343-6.142 0-8.486 2.343-2.343 6.142-2.343 8.486 0z" clip-rule="evenodd"/>
    <path stroke="#0D2065" stroke-linecap="round" stroke-linejoin="round" d="M19.553 15.751l-2.905 3.874c-.25.331-.72.398-1.05.15-.029-.022-.056-.045-.08-.07l-1.5-1.5"/>
</svg>
