<svg width="16" height="16" viewBox="0 0 16 16" fill="none" xmlns="http://www.w3.org/2000/svg">
<path d="M8 10C9.10457 10 10 9.10457 10 8C10 6.89543 9.10457 6 8 6C6.89543 6 6 6.89543 6 8C6 9.10457 6.89543 10 8 10Z" stroke="#4A5FAC" stroke-miterlimit="10" stroke-linecap="round" stroke-linejoin="round"/>
<path d="M14 8.8V7.2L12.2584 6.9096C12.1536 6.5 11.9928 6.1144 11.7824 5.76L12.8088 4.3232L11.6768 3.192L10.24 4.2176C9.8856 4.0072 9.5 3.8464 9.0904 3.7416L8.8 2H7.2L6.9096 3.7416C6.5 3.8464 6.1144 4.0072 5.76 4.2176L4.3232 3.192L3.192 4.3232L4.2176 5.76C4.0072 6.1144 3.8464 6.5 3.7416 6.9096L2 7.2V8.8L3.7416 9.0904C3.8464 9.5 4.0072 9.8856 4.2176 10.24L3.192 11.6768L4.3232 12.808L5.76 11.7824C6.1144 11.9928 6.5 12.1536 6.9096 12.2584L7.2 14H8.8L9.0904 12.2584C9.5 12.1536 9.8856 11.9928 10.24 11.7824L11.6768 12.8088L12.808 11.6776L11.7824 10.24C11.9928 9.8856 12.1536 9.5 12.2584 9.0904L14 8.8Z" stroke="#4A5FAC" stroke-miterlimit="10" stroke-linecap="round" stroke-linejoin="round"/>
</svg>
