<svg xmlns="http://www.w3.org/2000/svg" width="14" height="20"><rect id="backgroundrect" width="100%" height="100%" x="0" y="0" fill="none" stroke="none"/>
    <defs>
        <filter id="sclha514ja" width="149.2%" height="127.9%" x="-24.6%" y="-13.9%" filterUnits="objectBoundingBox">
            <feOffset dy="10" in="SourceAlpha" result="shadowOffsetOuter1"/>
            <feGaussianBlur in="shadowOffsetOuter1" result="shadowBlurOuter1" stdDeviation="20"/>
            <feColorMatrix in="shadowBlurOuter1" result="shadowMatrixOuter1" values="0 0 0 0 0 0 0 0 0 0 0 0 0 0 0 0 0 0 0.1 0"/>
            <feMerge>
                <feMergeNode in="shadowMatrixOuter1"/>
                <feMergeNode in="SourceGraphic"/>
            </feMerge>
        </filter>
    </defs>
    
<g class="currentLayer" style=""><title>Layer 1</title><g fill="none" fill-rule="evenodd" id="svg_1" class="">
        <g fill="#0d2065" fill-rule="nonzero" id="svg_2">
            <g filter="url(#sclha514ja)" transform="translate(1030,20) " id="svg_3">
                <g id="svg_4">
                    <g id="svg_5">
                        <path d="M-1026,-2 c0,0.55 0.45,1 1,1 h4 c0.55,0 1,-0.45 1,-1 v-1 H-1026 v1 zM-1023,-21 C-1026.8600000000001,-21 -1030,-17.86 -1030,-14 c0,2.38 1.19,4.47 3,5.74 V-6 c0,0.55 0.45,1 1,1 h6 c0.55,0 1,-0.45 1,-1 v-2.26 c1.81,-1.27 3,-3.36 3,-5.74 c0,-3.8600000000000003 -3.14,-7 -7,-7 zm2.85,11.1 l-0.8500000000000003,0.6000000000000003 V-7 H-1025 v-2.3 l-0.8500000000000003,-0.6000000000000003 C-1027.2,-10.840000000000003 -1028,-12.369999999999997 -1028,-14 c0,-2.7600000000000002 2.24,-5 5,-5 s5,2.24 5,5 c0,1.6300000000000003 -0.8,3.16 -2.15,4.1 z" transform="translate(0,1) " id="svg_6"/>
                    </g>
                </g>
            </g>
        </g>
    </g></g></svg>