<svg xmlns="http://www.w3.org/2000/svg" width="22" height="22"><rect id="backgroundrect" width="100%" height="100%" x="0" y="0" fill="none" stroke="none" class="" style=""/>
    <defs>
        <filter id="prefix__a" width="115.4%" height="109%" x="-7.6%" y="-4.5%" filterUnits="objectBoundingBox">
            <feOffset dy="5" in="SourceAlpha" result="shadowOffsetOuter1"/>
            <feGaussianBlur in="shadowOffsetOuter1" result="shadowBlurOuter1" stdDeviation="5"/>
            <feColorMatrix in="shadowBlurOuter1" result="shadowMatrixOuter1" values="0 0 0 0 0 0 0 0 0 0 0 0 0 0 0 0 0 0 0.1 0"/>
            <feMerge>
                <feMergeNode in="shadowMatrixOuter1"/>
                <feMergeNode in="SourceGraphic"/>
            </feMerge>
        </filter>
    </defs>
    
<g class="currentLayer" style=""><title>Layer 1</title><g fill="#FFF" filter="url(#prefix__a)" id="svg_1" class="">
        <path d="M10.406504064798355,1.2195122241973877 c-5.5,0 -10,4.5 -10,10 c0,4.25 2.625,7.875 6.375,9.25 c-0.125,-0.7500000000000003 -0.125,-2 0,-2.875 c0.125,-0.7500000000000003 1.125,-5 1.125,-5 s-0.25,-0.5 -0.25,-1.375 c0,-1.375 0.8750000000000003,-2.5 1.875,-2.5 c0.8750000000000003,0 1.25,0.6250000000000003 1.25,1.375 c0,0.8750000000000003 -0.5,2.125 -0.8750000000000003,3.375 c-0.25,1 0.5,1.75 1.5,1.75 c1.75,0 3.125,-1.875 3.125,-4.625 c0,-2.375 -1.75,-4.125 -4.125,-4.125 c-2.875,0 -4.5,2.125 -4.5,4.375 c0,0.8750000000000003 0.37500000000000017,1.75 0.7500000000000003,2.25 v0.5 c-0.125,0.37500000000000017 -0.25,1 -0.25,1.125 s-0.125,0.25 -0.37500000000000017,0.125 c-1.25,-0.6250000000000003 -2,-2.375 -2,-3.875 c0,-3.125 2.25,-6 6.625,-6 c3.5,0 6.125,2.5 6.125,5.75 c0,3.5 -2.125,6.25 -5.25,6.25 c-1,0 -2,-0.5 -2.25,-1.125 c0,0 -0.5,1.875 -0.6250000000000003,2.375 c-0.25,0.8750000000000003 -0.8750000000000003,2 -1.25,2.625 c1,0.25 2,0.37500000000000017 3,0.37500000000000017 c5.5,0 10,-4.5 10,-10 s-4.5,-10 -10,-10 z" id="svg_2"/>
    </g></g></svg>