<svg xmlns="http://www.w3.org/2000/svg" width="18" height="16"><rect id="backgroundrect" width="100%" height="100%" x="0" y="0" fill="none" stroke="none" class="" style=""/>    
<g class="currentLayer" style=""><title>Layer 1</title><g fill="none" fill-rule="evenodd" stroke="#000" stroke-linecap="round" stroke-linejoin="round" stroke-width="2">
        <g id="svg_2">
            <path d="M1.7999991116523688,8.362000912189501 v3.938 c0,0.34800000000000036 0.139,0.6820000000000007 0.3850000000000003,0.928 s0.5800000000000004,0.3840000000000003 0.928,0.3840000000000003 h11.812 c0.34800000000000036,0 0.6820000000000007,-0.138 0.928,-0.3840000000000003 s0.3850000000000003,-0.5800000000000004 0.3850000000000003,-0.928 V8.362000912189501 " id="svg_3"/>
            <path d="M16.23799911165237,5.081000912189438 V3.112000912189501 c0,-0.34800000000000036 -0.139,-0.6820000000000007 -0.3850000000000003,-0.928 s-0.5800000000000004,-0.3840000000000003 -0.928,-0.3840000000000003 H3.112999111652371 c-0.34800000000000036,0 -0.6820000000000007,0.138 -0.928,0.3840000000000003 s-0.3850000000000003,0.5800000000000004 -0.3850000000000003,0.928 v1.969 L9.018999111652377,9.01900091218954 l7.219,-3.938 z" id="svg_4"/>
        </g>
    </g></g></svg>