<svg xmlns="http://www.w3.org/2000/svg" width="20" height="16"><rect id="backgroundrect" width="100%" height="100%" x="0" y="0" fill="none" stroke="none" class="" style=""/>
<g class="currentLayer" style=""><title>Layer 1</title><g fill="#111">
        <path d="M19.100000023841858,2.4400000119209153 c-0.6570000000000007,0.3290000000000003 -1.3130000000000002,0.4380000000000002 -2.078,0.547 c0.7650000000000005,-0.4370000000000002 1.312,-1.093 1.5310000000000001,-1.968 c-0.6560000000000006,0.4370000000000002 -1.421,0.6560000000000006 -2.2960000000000003,0.8750000000000004 c-0.6570000000000007,-0.6570000000000007 -1.641,-1.094 -2.625,-1.094 c-1.86,0 -3.5,1.6400000000000001 -3.5,3.6100000000000003 c0,0.3270000000000003 0,0.546 0.10900000000000006,0.7650000000000005 c-2.9530000000000003,-0.11000000000000006 -5.6880000000000015,-1.5310000000000001 -7.438,-3.7190000000000003 c-0.3280000000000003,0.547 -0.4370000000000002,1.094 -0.4370000000000002,1.86 c0,1.203 0.6560000000000006,2.297 1.6400000000000001,2.9530000000000003 c-0.547,0 -1.093,-0.2190000000000001 -1.6400000000000001,-0.4380000000000002 c0,1.75 1.202,3.172 2.843,3.5 c-0.3270000000000003,0.11000000000000006 -0.6560000000000006,0.11000000000000006 -0.984,0.11000000000000006 c-0.2180000000000001,0 -0.4370000000000002,0 -0.6570000000000007,-0.11000000000000006 c0.4390000000000002,1.4220000000000002 1.75,2.516 3.391,2.516 c-1.202,0.984 -2.734,1.5310000000000001 -4.484,1.5310000000000001 H1.600000023841858 c1.6400000000000001,0.985 3.5,1.6400000000000001 5.468,1.6400000000000001 c6.564,0 10.173,-5.468 10.173,-10.171 v-0.4380000000000002 c0.7660000000000005,-0.547 1.4220000000000002,-1.203 1.859,-1.968 z" id="svg_2"/>
    </g></g></svg>