<svg xmlns="http://www.w3.org/2000/svg" width="20" height="20"><rect id="backgroundrect" width="100%" height="100%" x="0" y="0" fill="none" stroke="none" class="" style=""/>
<g class="currentLayer" style=""><title>Layer 1</title><g fill="#111" fill-rule="evenodd">
        <g id="svg_2">
            <path fill-rule="nonzero" d="M1.6019995355605947,18.300000762939476 l1.23,-4.494 C2.0719995355606216,12.491000762939507 1.671999535560588,11.000000762939408 1.6739995355605977,9.471000762939411 C1.6759995355606072,4.690000762939462 5.566999535560626,0.800000762939476 10.347999535560632,0.800000762939476 c2.3200000000000003,0 4.5,0.904 6.1370000000000005,2.543 c1.6380000000000003,1.6400000000000001 2.54,3.818 2.5380000000000003,6.135 c-0.0020000000000000035,4.781 -3.894,8.672 -8.675,8.672 h-0.003000000000000008 c-1.452,-0.0010000000000000018 -2.878,-0.3650000000000003 -4.145,-1.056 L1.5999995355605852,18.300000762939476 zM6.411999535560597,15.524000762939409 l0.263,0.15600000000000025 c1.107,0.6570000000000011 2.376,1.005 3.67,1.005 h0.0020000000000000035 c3.974,0 7.209,-3.233 7.21,-7.208 c0.0010000000000000018,-1.925 -0.7480000000000009,-3.736 -2.11,-5.099 c-1.36,-1.362 -3.171,-2.113 -5.097,-2.113 c-3.976,0 -7.21,3.233 -7.213,7.207 c0,1.362 0.38100000000000045,2.688 1.103,3.835 l0.171,0.273 l-0.7280000000000006,2.66 l2.729,-0.7160000000000006 z" id="svg_3"/>
            <path d="M8.179999535560626,5.846000762939411 c-0.17500000000000004,-0.4220000000000003 -0.3540000000000003,-0.3650000000000003 -0.4870000000000003,-0.37200000000000044 c-0.126,-0.006000000000000017 -0.271,-0.007000000000000017 -0.4150000000000003,-0.007000000000000017 c-0.1450000000000002,0 -0.38000000000000045,0.054000000000000103 -0.5790000000000006,0.27 c-0.19900000000000034,0.21800000000000025 -0.758000000000001,0.7420000000000009 -0.758000000000001,1.808 c0,1.067 0.776,2.097 0.885000000000001,2.242 c0.10800000000000011,0.14400000000000004 1.528,2.333 3.702,3.271 c0.518,0.22400000000000028 0.921,0.3570000000000003 1.236,0.457 c0.52,0.16500000000000029 0.992,0.14200000000000004 1.366,0.08600000000000015 c0.4150000000000003,-0.062000000000000104 1.2810000000000001,-0.524 1.463,-1.03 c0.18000000000000022,-0.507 0.18000000000000022,-0.9400000000000006 0.126,-1.03 c-0.054000000000000103,-0.0910000000000002 -0.2,-0.1460000000000002 -0.4160000000000003,-0.254 c-0.21700000000000022,-0.10800000000000011 -1.282,-0.633000000000001 -1.48,-0.7050000000000006 c-0.2,-0.07200000000000002 -0.3440000000000006,-0.10800000000000011 -0.4890000000000003,0.10900000000000011 c-0.14400000000000004,0.21600000000000022 -0.56,0.7040000000000006 -0.6860000000000012,0.8500000000000006 c-0.126,0.14400000000000004 -0.252,0.16200000000000028 -0.4700000000000003,0.053000000000000096 c-0.21600000000000022,-0.10800000000000011 -0.914,-0.3370000000000006 -1.742,-1.075 c-0.644000000000001,-0.5750000000000006 -1.08,-1.284 -1.207,-1.501 c-0.126,-0.21700000000000022 -0.013000000000000025,-0.3340000000000006 0.09600000000000022,-0.44200000000000045 c0.09800000000000023,-0.09700000000000022 0.21700000000000022,-0.253 0.3250000000000005,-0.38000000000000045 c0.10900000000000011,-0.127 0.14400000000000004,-0.21700000000000022 0.21600000000000022,-0.3610000000000003 c0.07300000000000002,-0.1450000000000002 0.03700000000000001,-0.272 -0.01700000000000004,-0.38000000000000045 c-0.055000000000000056,-0.10900000000000011 -0.4880000000000003,-1.175 -0.6680000000000011,-1.609 z" id="svg_4"/>
        </g>
    </g></g></svg>