<svg width="16" height="17" viewBox="0 0 16 17" fill="none" xmlns="http://www.w3.org/2000/svg">
<g clip-path="url(#clip0_6872_26794)">
<path fill-rule="evenodd" clip-rule="evenodd" d="M13.1854 3.44476C16.0493 6.30861 16.0493 10.9518 13.1854 13.8157C10.3216 16.6795 5.67836 16.6795 2.81451 13.8157C-0.0493355 10.9518 -0.0493355 6.30861 2.81451 3.44476C5.67836 0.580914 10.3216 0.580914 13.1854 3.44476Z" stroke="#0D2065" stroke-linecap="round" stroke-linejoin="round"/>
<path d="M5.55554 11.0744L10.4444 6.18555" stroke="#0D2065" stroke-linecap="round" stroke-linejoin="round"/>
<path fill-rule="evenodd" clip-rule="evenodd" d="M6.73582 5.98316C7.11767 6.36501 7.11767 6.9841 6.73582 7.36595C6.35398 7.74779 5.73488 7.74779 5.35303 7.36595C4.97119 6.9841 4.97119 6.36501 5.35303 5.98316C5.73488 5.60132 6.35397 5.60132 6.73582 5.98316Z" stroke="#0D2065" stroke-linecap="round" stroke-linejoin="round"/>
<path fill-rule="evenodd" clip-rule="evenodd" d="M10.647 9.89429C11.0288 10.2761 11.0288 10.8952 10.647 11.2771C10.2651 11.6589 9.64602 11.6589 9.26417 11.2771C8.88232 10.8952 8.88232 10.2761 9.26417 9.89429C9.64601 9.51245 10.2651 9.51245 10.647 9.89429Z" stroke="#0D2065" stroke-linecap="round" stroke-linejoin="round"/>
</g>
<defs>
<clipPath id="clip0_6872_26794">
<rect width="16" height="16" fill="white" transform="translate(0 0.630371)"/>
</clipPath>
</defs>
</svg>
